<?xml version="1.0" standalone="no" ?>
<!DOCTYPE svg PUBLIC "-//W3C//DTD SVG 1.1//EN" "http://www.w3.org/Graphics/SVG/1.1/DTD/svg11.dtd">
<svg width="1000px" height="1000px" xmlns="http://www.w3.org/2000/svg" version="1.1" >
	<polygon points="0,1000 1000,1000 1000,0 0,0 " fill="rgb(255,255,255)" />
	<circle cx="516.158" cy="505.633" r="513.054" fill="none" stroke-width="2" stroke="rgb(255,120,79)" />
	<circle cx="526.613" cy="646.835" r="440.3" fill="none" stroke-width="2" stroke="rgb(263,96,178)" />
	<circle cx="318.621" cy="731.413" r="307.32" fill="none" stroke-width="2" stroke="rgb(242,89,270)" />
	<circle cx="372.507" cy="853.895" r="185.214" fill="none" stroke-width="2" stroke="rgb(198,99,332)" />
	<circle cx="283.771" cy="846.872" r="117.135" fill="none" stroke-width="2" stroke="rgb(143,125,346)" />
	<circle cx="281.518" cy="902.146" r="78.6743" fill="none" stroke-width="2" stroke="rgb(91,158,310)" />
	<circle cx="237.885" cy="903.477" r="49.6752" fill="none" stroke-width="2" stroke="rgb(56,191,231)" />
	<circle cx="244.839" cy="927.617" r="25.3809" fill="none" stroke-width="2" stroke="rgb(48,214,133)" />
	<circle cx="247.267" cy="941.188" r="14.4573" fill="none" stroke-width="2" stroke="rgb(69,222,41)" />
	<circle cx="234.478" cy="934.446" r="2" fill="rgb(113,211,-20)" />
	<circle cx="260.056" cy="947.93" r="2" fill="rgb(113,211,-20)" />
	<circle cx="229.621" cy="907.304" r="2" fill="rgb(69,222,41)" />
	<circle cx="221.63" cy="870.829" r="13.2044" fill="none" stroke-width="2" stroke="rgb(48,214,133)" />
	<circle cx="227.546" cy="882.634" r="2" fill="rgb(69,222,41)" />
	<circle cx="215.714" cy="859.024" r="2" fill="rgb(69,222,41)" />
	<circle cx="318.207" cy="947.995" r="29.2414" fill="none" stroke-width="2" stroke="rgb(56,191,231)" />
	<circle cx="289.093" cy="950.721" r="2" fill="rgb(48,214,133)" />
	<circle cx="332.832" cy="947.333" r="14.6358" fill="none" stroke-width="2" stroke="rgb(48,214,133)" />
	<circle cx="318.342" cy="949.397" r="2" fill="rgb(69,222,41)" />
	<circle cx="347.321" cy="945.269" r="2" fill="rgb(69,222,41)" />
	<circle cx="247.539" cy="788.432" r="48.4027" fill="none" stroke-width="2" stroke="rgb(91,158,310)" />
	<circle cx="254.169" cy="818.191" r="28.702" fill="none" stroke-width="2" stroke="rgb(56,191,231)" />
	<circle cx="240.725" cy="823.984" r="14.4209" fill="none" stroke-width="2" stroke="rgb(48,214,133)" />
	<circle cx="229.894" cy="833.504" r="2" fill="rgb(69,222,41)" />
	<circle cx="251.557" cy="814.463" r="2" fill="rgb(69,222,41)" />
	<circle cx="278.445" cy="802.877" r="2" fill="rgb(48,214,133)" />
	<circle cx="257.806" cy="764.817" r="40.9845" fill="none" stroke-width="2" stroke="rgb(56,191,231)" />
	<circle cx="233.825" cy="753.865" r="14.6327" fill="none" stroke-width="2" stroke="rgb(48,214,133)" />
	<circle cx="220.221" cy="748.475" r="2" fill="rgb(69,222,41)" />
	<circle cx="247.429" cy="759.254" r="2" fill="rgb(69,222,41)" />
	<circle cx="285.504" cy="774.201" r="12.0908" fill="none" stroke-width="2" stroke="rgb(48,214,133)" />
	<circle cx="275.616" cy="767.243" r="2" fill="rgb(69,222,41)" />
	<circle cx="295.392" cy="781.159" r="2" fill="rgb(69,222,41)" />
	<circle cx="450.624" cy="950.863" r="74.6479" fill="none" stroke-width="2" stroke="rgb(143,125,346)" />
	<circle cx="404.22" cy="950.191" r="28.8338" fill="none" stroke-width="2" stroke="rgb(91,158,310)" />
	<circle cx="376.456" cy="942.412" r="2" fill="rgb(56,191,231)" />
	<circle cx="418.512" cy="952.326" r="14.608" fill="none" stroke-width="2" stroke="rgb(56,191,231)" />
	<circle cx="405.039" cy="946.68" r="2" fill="rgb(48,214,133)" />
	<circle cx="431.985" cy="957.971" r="2" fill="rgb(48,214,133)" />
	<circle cx="492.836" cy="960.868" r="31.9943" fill="none" stroke-width="2" stroke="rgb(91,158,310)" />
	<circle cx="463.638" cy="962.588" r="2.7645" fill="none" stroke-width="2" stroke="rgb(56,191,231)" />
	<circle cx="460.879" cy="962.422" r="2" fill="rgb(48,214,133)" />
	<circle cx="466.398" cy="962.754" r="2" fill="rgb(48,214,133)" />
	<circle cx="510.219" cy="960.826" r="14.6512" fill="none" stroke-width="2" stroke="rgb(56,191,231)" />
	<circle cx="495.646" cy="962.338" r="2" fill="rgb(48,214,133)" />
	<circle cx="524.792" cy="959.314" r="2" fill="rgb(48,214,133)" />
	<circle cx="154.583" cy="617.409" r="121.44" fill="none" stroke-width="2" stroke="rgb(198,99,332)" />
	<circle cx="159.408" cy="686.981" r="57.9364" fill="none" stroke-width="2" stroke="rgb(143,125,346)" />
	<circle cx="175.811" cy="710.92" r="29.1994" fill="none" stroke-width="2" stroke="rgb(91,158,310)" />
	<circle cx="164.666" cy="701.445" r="14.6396" fill="none" stroke-width="2" stroke="rgb(56,191,231)" />
	<circle cx="174.426" cy="712.357" r="2" fill="rgb(48,214,133)" />
	<circle cx="154.906" cy="690.534" r="2" fill="rgb(48,214,133)" />
	<circle cx="196.716" cy="731.306" r="2" fill="rgb(56,191,231)" />
	<circle cx="129.004" cy="655.437" r="14.5265" fill="none" stroke-width="2" stroke="rgb(91,158,310)" />
	<circle cx="135.909" cy="668.217" r="2" fill="rgb(56,191,231)" />
	<circle cx="122.099" cy="642.656" r="2" fill="rgb(56,191,231)" />
	<circle cx="111.072" cy="559.877" r="56.3824" fill="none" stroke-width="2" stroke="rgb(143,125,346)" />
	<circle cx="104.461" cy="602.664" r="14.5512" fill="none" stroke-width="2" stroke="rgb(91,158,310)" />
	<circle cx="109.692" cy="616.242" r="2" fill="rgb(56,191,231)" />
	<circle cx="99.23" cy="589.085" r="2" fill="rgb(56,191,231)" />
	<circle cx="105.671" cy="531.68" r="28.9731" fill="none" stroke-width="2" stroke="rgb(91,158,310)" />
	<circle cx="98.89" cy="559.848" r="2" fill="rgb(56,191,231)" />
	<circle cx="107.172" cy="517.127" r="14.6031" fill="none" stroke-width="2" stroke="rgb(56,191,231)" />
	<circle cx="101.893" cy="530.742" r="2" fill="rgb(48,214,133)" />
	<circle cx="112.451" cy="503.511" r="2" fill="rgb(48,214,133)" />
	<circle cx="699.72" cy="728.534" r="270.314" fill="none" stroke-width="2" stroke="rgb(242,89,270)" />
	<circle cx="754.209" cy="844.889" r="229.131" fill="none" stroke-width="2" stroke="rgb(198,99,332)" />
	<circle cx="652.097" cy="934.716" r="100.506" fill="none" stroke-width="2" stroke="rgb(143,125,346)" />
	<circle cx="597.627" cy="951.753" r="43.9451" fill="none" stroke-width="2" stroke="rgb(91,158,310)" />
	<circle cx="568.468" cy="954.591" r="14.6482" fill="none" stroke-width="2" stroke="rgb(56,191,231)" />
	<circle cx="553.902" cy="956.145" r="2" fill="rgb(48,214,133)" />
	<circle cx="583.033" cy="953.037" r="2" fill="rgb(48,214,133)" />
	<circle cx="626.781" cy="948.731" r="14.6349" fill="none" stroke-width="2" stroke="rgb(56,191,231)" />
	<circle cx="612.211" cy="950.102" r="2" fill="rgb(48,214,133)" />
	<circle cx="641.352" cy="947.36" r="2" fill="rgb(48,214,133)" />
	<circle cx="710.392" cy="928.731" r="42.7838" fill="none" stroke-width="2" stroke="rgb(91,158,310)" />
	<circle cx="684.953" cy="941.863" r="14.643" fill="none" stroke-width="2" stroke="rgb(56,191,231)" />
	<circle cx="670.493" cy="944.174" r="2" fill="rgb(48,214,133)" />
	<circle cx="699.412" cy="939.552" r="2" fill="rgb(48,214,133)" />
	<circle cx="738.849" cy="922.251" r="14.5361" fill="none" stroke-width="2" stroke="rgb(56,191,231)" />
	<circle cx="727.405" cy="931.215" r="2" fill="rgb(48,214,133)" />
	<circle cx="750.292" cy="913.288" r="2" fill="rgb(48,214,133)" />
	<circle cx="862.878" cy="813.313" r="121.436" fill="none" stroke-width="2" stroke="rgb(143,125,346)" />
	<circle cx="812.698" cy="878.65" r="43.8708" fill="none" stroke-width="2" stroke="rgb(91,158,310)" />
	<circle cx="785.258" cy="888.792" r="14.6351" fill="none" stroke-width="2" stroke="rgb(56,191,231)" />
	<circle cx="771.238" cy="892.992" r="2" fill="rgb(48,214,133)" />
	<circle cx="799.277" cy="884.592" r="2" fill="rgb(48,214,133)" />
	<circle cx="840.622" cy="869.898" r="14.6449" fill="none" stroke-width="2" stroke="rgb(56,191,231)" />
	<circle cx="827.086" cy="875.487" r="2" fill="rgb(48,214,133)" />
	<circle cx="854.159" cy="864.309" r="2" fill="rgb(48,214,133)" />
	<circle cx="917.242" cy="792.065" r="69.3087" fill="none" stroke-width="2" stroke="rgb(91,158,310)" />
	<circle cx="902.879" cy="832.432" r="29.1769" fill="none" stroke-width="2" stroke="rgb(56,191,231)" />
	<circle cx="879.966" cy="850.496" r="2" fill="rgb(48,214,133)" />
	<circle cx="915.003" cy="824.238" r="14.6222" fill="none" stroke-width="2" stroke="rgb(48,214,133)" />
	<circle cx="904.215" cy="834.109" r="2" fill="rgb(69,222,41)" />
	<circle cx="925.791" cy="814.368" r="2" fill="rgb(69,222,41)" />
	<circle cx="948.642" cy="762.137" r="29.1031" fill="none" stroke-width="2" stroke="rgb(56,191,231)" />
	<circle cx="947.073" cy="776.699" r="14.5913" fill="none" stroke-width="2" stroke="rgb(48,214,133)" />
	<circle cx="942.767" cy="790.641" r="2" fill="rgb(69,222,41)" />
	<circle cx="951.379" cy="762.758" r="2" fill="rgb(69,222,41)" />
	<circle cx="954.517" cy="733.633" r="2" fill="rgb(48,214,133)" />
	<circle cx="898.38" cy="602.809" r="114.773" fill="none" stroke-width="2" stroke="rgb(198,99,332)" />
	<circle cx="912.954" cy="659.158" r="59.4806" fill="none" stroke-width="2" stroke="rgb(143,125,346)" />
	<circle cx="914.677" cy="688.201" r="40.0934" fill="none" stroke-width="2" stroke="rgb(91,158,310)" />
	<circle cx="892.776" cy="671.544" r="14.6439" fill="none" stroke-width="2" stroke="rgb(56,191,231)" />
	<circle cx="878.133" cy="671.708" r="2" fill="rgb(48,214,133)" />
	<circle cx="907.419" cy="671.381" r="2" fill="rgb(48,214,133)" />
	<circle cx="942.724" cy="693.082" r="14.3891" fill="none" stroke-width="2" stroke="rgb(56,191,231)" />
	<circle cx="951.221" cy="704.694" r="2" fill="rgb(48,214,133)" />
	<circle cx="934.226" cy="681.47" r="2" fill="rgb(48,214,133)" />
	<circle cx="875.966" cy="628.217" r="14.6519" fill="none" stroke-width="2" stroke="rgb(91,158,310)" />
	<circle cx="877.245" cy="642.813" r="2" fill="rgb(56,191,231)" />
	<circle cx="874.687" cy="613.621" r="2" fill="rgb(56,191,231)" />
	<circle cx="858.269" cy="542.745" r="43.717" fill="none" stroke-width="2" stroke="rgb(143,125,346)" />
	<circle cx="868.419" cy="570.147" r="14.6494" fill="none" stroke-width="2" stroke="rgb(91,158,310)" />
	<circle cx="870.999" cy="584.568" r="2" fill="rgb(56,191,231)" />
	<circle cx="865.84" cy="555.727" r="2" fill="rgb(56,191,231)" />
	<circle cx="851.323" cy="514.35" r="14.62" fill="none" stroke-width="2" stroke="rgb(91,158,310)" />
	<circle cx="857.108" cy="527.777" r="2" fill="rgb(56,191,231)" />
	<circle cx="845.539" cy="500.923" r="2" fill="rgb(56,191,231)" />
	<circle cx="442.712" cy="404.034" r="395.183" fill="none" stroke-width="2" stroke="rgb(263,96,178)" />
	<circle cx="249.594" cy="275.756" r="270.966" fill="none" stroke-width="2" stroke="rgb(242,89,270)" />
	<circle cx="230.969" cy="404.323" r="186.409" fill="none" stroke-width="2" stroke="rgb(198,99,332)" />
	<circle cx="80.6735" cy="398.776" r="92.8579" fill="none" stroke-width="2" stroke="rgb(143,125,346)" />
	<circle cx="68.6025" cy="456.018" r="40.6882" fill="none" stroke-width="2" stroke="rgb(91,158,310)" />
	<circle cx="77.1695" cy="482.885" r="14.4381" fill="none" stroke-width="2" stroke="rgb(56,191,231)" />
	<circle cx="65.414" cy="474.502" r="2" fill="rgb(48,214,133)" />
	<circle cx="88.925" cy="491.267" r="2" fill="rgb(48,214,133)" />
	<circle cx="49.232" cy="435.267" r="14.5302" fill="none" stroke-width="2" stroke="rgb(56,191,231)" />
	<circle cx="50.184" cy="449.766" r="2" fill="rgb(48,214,133)" />
	<circle cx="48.28" cy="420.768" r="2" fill="rgb(48,214,133)" />
	<circle cx="63.909" cy="349.349" r="43.8964" fill="none" stroke-width="2" stroke="rgb(91,158,310)" />
	<circle cx="59.157" cy="378.261" r="14.6418" fill="none" stroke-width="2" stroke="rgb(56,191,231)" />
	<circle cx="55.396" cy="392.412" r="2" fill="rgb(48,214,133)" />
	<circle cx="62.918" cy="364.111" r="2" fill="rgb(48,214,133)" />
	<circle cx="70.067" cy="320.755" r="14.6589" fill="none" stroke-width="2" stroke="rgb(56,191,231)" />
	<circle cx="67.712" cy="335.223" r="2" fill="rgb(48,214,133)" />
	<circle cx="72.422" cy="306.286" r="2" fill="rgb(48,214,133)" />
	<circle cx="372.977" cy="339.09" r="53.5761" fill="none" stroke-width="2" stroke="rgb(143,125,346)" />
	<circle cx="345.155" cy="330.692" r="28.8016" fill="none" stroke-width="2" stroke="rgb(91,158,310)" />
	<circle cx="350.033" cy="344.463" r="14.5782" fill="none" stroke-width="2" stroke="rgb(56,191,231)" />
	<circle cx="359.038" cy="355.927" r="2" fill="rgb(48,214,133)" />
	<circle cx="341.028" cy="332.998" r="2" fill="rgb(48,214,133)" />
	<circle cx="331.273" cy="305.457" r="2" fill="rgb(56,191,231)" />
	<circle cx="400.592" cy="368.801" r="14.6241" fill="none" stroke-width="2" stroke="rgb(91,158,310)" />
	<circle cx="386.504" cy="364.877" r="2" fill="rgb(56,191,231)" />
	<circle cx="414.68" cy="372.724" r="2" fill="rgb(56,191,231)" />
	<circle cx="251.911" cy="177.129" r="207.601" fill="none" stroke-width="2" stroke="rgb(198,99,332)" />
	<circle cx="152.931" cy="178.825" r="128.673" fill="none" stroke-width="2" stroke="rgb(143,125,346)" />
	<circle cx="126.916" cy="241.741" r="67.0429" fill="none" stroke-width="2" stroke="rgb(91,158,310)" />
	<circle cx="85.498" cy="254.049" r="27.8733" fill="none" stroke-width="2" stroke="rgb(56,191,231)" />
	<circle cx="70.048" cy="277.248" r="2" fill="rgb(48,214,133)" />
	<circle cx="89.9495" cy="240.229" r="14.4548" fill="none" stroke-width="2" stroke="rgb(48,214,133)" />
	<circle cx="78.951" cy="249.608" r="2" fill="rgb(69,222,41)" />
	<circle cx="100.948" cy="230.849" r="2" fill="rgb(69,222,41)" />
	<circle cx="156.087" cy="213.441" r="28.62" fill="none" stroke-width="2" stroke="rgb(56,191,231)" />
	<circle cx="128.389" cy="220.649" r="2" fill="rgb(48,214,133)" />
	<circle cx="170.305" cy="209.937" r="13.9791" fill="none" stroke-width="2" stroke="rgb(48,214,133)" />
	<circle cx="156.825" cy="213.641" r="2" fill="rgb(69,222,41)" />
	<circle cx="183.784" cy="206.233" r="2" fill="rgb(69,222,41)" />
	<circle cx="211.266" cy="128.736" r="54.2116" fill="none" stroke-width="2" stroke="rgb(91,158,310)" />
	<circle cx="188.185" cy="162.495" r="14.6502" fill="none" stroke-width="2" stroke="rgb(56,191,231)" />
	<circle cx="186.717" cy="177.071" r="2" fill="rgb(48,214,133)" />
	<circle cx="189.652" cy="147.918" r="2" fill="rgb(48,214,133)" />
	<circle cx="216.133" cy="99.949" r="27.7393" fill="none" stroke-width="2" stroke="rgb(56,191,231)" />
	<circle cx="203.216" cy="106.726" r="14.4523" fill="none" stroke-width="2" stroke="rgb(48,214,133)" />
	<circle cx="196.452" cy="119.497" r="2" fill="rgb(69,222,41)" />
	<circle cx="209.981" cy="93.954" r="2" fill="rgb(69,222,41)" />
	<circle cx="235.814" cy="80.401" r="2" fill="rgb(48,214,133)" />
	<circle cx="351.775" cy="161.52" r="117.754" fill="none" stroke-width="2" stroke="rgb(143,125,346)" />
	<circle cx="359.463" cy="202.054" r="79.9606" fill="none" stroke-width="2" stroke="rgb(91,158,310)" />
	<circle cx="308.843" cy="231.333" r="54.3106" fill="none" stroke-width="2" stroke="rgb(56,191,231)" />
	<circle cx="336.216" cy="278.241" r="2" fill="rgb(48,214,133)" />
	<circle cx="287.854" cy="183.734" r="6.42179" fill="none" stroke-width="2" stroke="rgb(48,214,133)" />
	<circle cx="281.47" cy="184.425" r="2" fill="rgb(69,222,41)" />
	<circle cx="294.239" cy="183.043" r="2" fill="rgb(69,222,41)" />
	<circle cx="399.067" cy="240.957" r="43.8901" fill="none" stroke-width="2" stroke="rgb(56,191,231)" />
	<circle cx="373.219" cy="254.716" r="14.6209" fill="none" stroke-width="2" stroke="rgb(48,214,133)" />
	<circle cx="360.677" cy="262.231" r="2" fill="rgb(69,222,41)" />
	<circle cx="385.76" cy="247.2" r="2" fill="rgb(69,222,41)" />
	<circle cx="424.549" cy="226.573" r="14.6313" fill="none" stroke-width="2" stroke="rgb(48,214,133)" />
	<circle cx="411.641" cy="233.463" r="2" fill="rgb(69,222,41)" />
	<circle cx="437.456" cy="219.683" r="2" fill="rgb(69,222,41)" />
	<circle cx="349.717" cy="93.8477" r="85.7279" fill="none" stroke-width="2" stroke="rgb(91,158,310)" />
	<circle cx="295.958" cy="119.45" r="48.6079" fill="none" stroke-width="2" stroke="rgb(56,191,231)" />
	<circle cx="313.192" cy="144.612" r="24.7378" fill="none" stroke-width="2" stroke="rgb(48,214,133)" />
	<circle cx="293.325" cy="142.555" r="14.5951" fill="none" stroke-width="2" stroke="rgb(69,222,41)" />
	<circle cx="291.822" cy="157.073" r="2" fill="rgb(113,211,-20)" />
	<circle cx="294.828" cy="128.038" r="2" fill="rgb(113,211,-20)" />
	<circle cx="327.06" cy="153.812" r="14.6503" fill="none" stroke-width="2" stroke="rgb(69,222,41)" />
	<circle cx="316.199" cy="163.643" r="2" fill="rgb(113,211,-20)" />
	<circle cx="337.922" cy="143.98" r="2" fill="rgb(113,211,-20)" />
	<circle cx="276.055" cy="91.1005" r="14.3873" fill="none" stroke-width="2" stroke="rgb(48,214,133)" />
	<circle cx="264.791" cy="82.149" r="2" fill="rgb(69,222,41)" />
	<circle cx="287.318" cy="100.052" r="2" fill="rgb(69,222,41)" />
	<circle cx="397.185" cy="101.228" r="43.8791" fill="none" stroke-width="2" stroke="rgb(56,191,231)" />
	<circle cx="372.476" cy="116.886" r="14.644" fill="none" stroke-width="2" stroke="rgb(48,214,133)" />
	<circle cx="360.594" cy="125.446" r="2" fill="rgb(69,222,41)" />
	<circle cx="384.358" cy="108.327" r="2" fill="rgb(69,222,41)" />
	<circle cx="421.434" cy="84.804" r="14.5966" fill="none" stroke-width="2" stroke="rgb(48,214,133)" />
	<circle cx="409.092" cy="92.598" r="2" fill="rgb(69,222,41)" />
	<circle cx="433.775" cy="77.0099" r="2" fill="rgb(69,222,41)" />
	<circle cx="644.717" cy="267.888" r="279.031" fill="none" stroke-width="2" stroke="rgb(242,89,270)" />
	<circle cx="637.076" cy="428.069" r="199.994" fill="none" stroke-width="2" stroke="rgb(198,99,332)" />
	<circle cx="528.878" cy="365.269" r="87.5571" fill="none" stroke-width="2" stroke="rgb(143,125,346)" />
	<circle cx="485.615" cy="372.263" r="43.7473" fill="none" stroke-width="2" stroke="rgb(91,158,310)" />
	<circle cx="457.238" cy="379.53" r="14.576" fill="none" stroke-width="2" stroke="rgb(56,191,231)" />
	<circle cx="442.726" cy="380.889" r="2" fill="rgb(48,214,133)" />
	<circle cx="471.751" cy="378.17" r="2" fill="rgb(48,214,133)" />
	<circle cx="514.324" cy="367.338" r="14.6533" fill="none" stroke-width="2" stroke="rgb(56,191,231)" />
	<circle cx="500.146" cy="371.038" r="2" fill="rgb(48,214,133)" />
	<circle cx="528.503" cy="363.638" r="2" fill="rgb(48,214,133)" />
	<circle cx="586.01" cy="353.216" r="29.2389" fill="none" stroke-width="2" stroke="rgb(91,158,310)" />
	<circle cx="571.4" cy="354.231" r="14.6342" fill="none" stroke-width="2" stroke="rgb(56,191,231)" />
	<circle cx="556.99" cy="356.783" r="2" fill="rgb(48,214,133)" />
	<circle cx="585.81" cy="351.679" r="2" fill="rgb(48,214,133)" />
	<circle cx="615.031" cy="349.649" r="2" fill="rgb(56,191,231)" />
	<circle cx="737.872" cy="412.385" r="112.712" fill="none" stroke-width="2" stroke="rgb(143,125,346)" />
	<circle cx="685.762" cy="362.219" r="43.3437" fill="none" stroke-width="2" stroke="rgb(91,158,310)" />
	<circle cx="658.878" cy="350.714" r="14.6067" fill="none" stroke-width="2" stroke="rgb(56,191,231)" />
	<circle cx="644.32" cy="349.522" r="2" fill="rgb(48,214,133)" />
	<circle cx="673.436" cy="351.907" r="2" fill="rgb(48,214,133)" />
	<circle cx="714.065" cy="368.44" r="14.648" fill="none" stroke-width="2" stroke="rgb(56,191,231)" />
	<circle cx="700.926" cy="361.966" r="2" fill="rgb(48,214,133)" />
	<circle cx="727.205" cy="374.915" r="2" fill="rgb(48,214,133)" />
	<circle cx="791.896" cy="432.575" r="58.1688" fill="none" stroke-width="2" stroke="rgb(91,158,310)" />
	<circle cx="823.206" cy="463.141" r="14.6345" fill="none" stroke-width="2" stroke="rgb(56,191,231)" />
	<circle cx="831.425" cy="475.249" r="2" fill="rgb(48,214,133)" />
	<circle cx="814.987" cy="451.032" r="2" fill="rgb(48,214,133)" />
	<circle cx="774.357" cy="409.176" r="29.2419" fill="none" stroke-width="2" stroke="rgb(56,191,231)" />
	<circle cx="752.366" cy="389.902" r="2" fill="rgb(48,214,133)" />
	<circle cx="785.831" cy="418.255" r="14.647" fill="none" stroke-width="2" stroke="rgb(48,214,133)" />
	<circle cx="775.314" cy="408.061" r="2" fill="rgb(69,222,41)" />
	<circle cx="796.348" cy="428.45" r="2" fill="rgb(69,222,41)" />
	<circle cx="487.242" cy="122.551" r="88.6981" fill="none" stroke-width="2" stroke="rgb(198,99,332)" />
	<circle cx="508.373" cy="173.135" r="56.2817" fill="none" stroke-width="2" stroke="rgb(143,125,346)" />
	<circle cx="477.753" cy="202.231" r="14.6534" fill="none" stroke-width="2" stroke="rgb(91,158,310)" />
	<circle cx="464.395" cy="208.256" r="2" fill="rgb(56,191,231)" />
	<circle cx="491.11" cy="196.206" r="2" fill="rgb(56,191,231)" />
	<circle cx="534.693" cy="160.328" r="28.457" fill="none" stroke-width="2" stroke="rgb(91,158,310)" />
	<circle cx="528.15" cy="173.153" r="14.6154" fill="none" stroke-width="2" stroke="rgb(56,191,231)" />
	<circle cx="517.035" cy="182.644" r="2" fill="rgb(48,214,133)" />
	<circle cx="539.264" cy="163.662" r="2" fill="rgb(48,214,133)" />
	<circle cx="552.352" cy="138.013" r="2" fill="rgb(56,191,231)" />
	<circle cx="505.607" cy="84.6515" r="53.3617" fill="none" stroke-width="2" stroke="rgb(143,125,346)" />
	<circle cx="470.443" cy="52.7795" r="14.6499" fill="none" stroke-width="2" stroke="rgb(91,158,310)" />
	<circle cx="458.01" cy="60.528" r="2" fill="rgb(56,191,231)" />
	<circle cx="482.876" cy="45.031" r="2" fill="rgb(56,191,231)" />
	<circle cx="531.648" cy="72.8105" r="41.9306" fill="none" stroke-width="2" stroke="rgb(91,158,310)" />
	<circle cx="550.086" cy="94.538" r="14.5746" fill="none" stroke-width="2" stroke="rgb(56,191,231)" />
	<circle cx="553.205" cy="108.775" r="2" fill="rgb(48,214,133)" />
	<circle cx="546.968" cy="80.301" r="2" fill="rgb(48,214,133)" />
	<circle cx="521.486" cy="45.881" r="14.5427" fill="none" stroke-width="2" stroke="rgb(56,191,231)" />
	<circle cx="510.09" cy="36.846" r="2" fill="rgb(48,214,133)" />
	<circle cx="532.881" cy="54.916" r="2" fill="rgb(48,214,133)" />
</svg>
