<?xml version="1.0" standalone="no" ?>
<!DOCTYPE svg PUBLIC "-//W3C//DTD SVG 1.1//EN" "http://www.w3.org/Graphics/SVG/1.1/DTD/svg11.dtd">
<svg width="1000px" height="1000px" xmlns="http://www.w3.org/2000/svg" version="1.1" >
	<polygon points="0,1000 1000,1000 1000,0 0,0 " fill="rgb(255,255,255)" />
	<circle cx="411.641" cy="233.463" r="2" fill="rgb(255,120,79)" />
	<line x1="411.641" y1="1000" x2="411.641" y2="0" stroke-width="2" stroke="rgb(255,120,79)" />
	<circle cx="386.504" cy="364.877" r="2" fill="rgb(263,96,178)" />
	<line x1="0" y1="364.877" x2="411.641" y2="364.877" stroke-width="2" stroke="rgb(263,96,178)" />
	<circle cx="220.221" cy="748.475" r="2" fill="rgb(242,89,270)" />
	<line x1="220.221" y1="1000" x2="220.221" y2="364.877" stroke-width="2" stroke="rgb(242,89,270)" />
	<circle cx="98.89" cy="559.848" r="2" fill="rgb(198,99,332)" />
	<line x1="0" y1="559.848" x2="220.221" y2="559.848" stroke-width="2" stroke="rgb(198,99,332)" />
	<circle cx="154.906" cy="690.534" r="2" fill="rgb(143,125,346)" />
	<line x1="154.906" y1="1000" x2="154.906" y2="559.848" stroke-width="2" stroke="rgb(143,125,346)" />
	<circle cx="109.692" cy="616.242" r="2" fill="rgb(91,158,310)" />
	<line x1="0" y1="616.242" x2="154.906" y2="616.242" stroke-width="2" stroke="rgb(91,158,310)" />
	<circle cx="135.909" cy="668.217" r="2" fill="rgb(56,191,231)" />
	<line x1="135.909" y1="1000" x2="135.909" y2="616.242" stroke-width="2" stroke="rgb(56,191,231)" />
	<circle cx="122.099" cy="642.656" r="2" fill="rgb(48,214,133)" />
	<line x1="0" y1="642.656" x2="135.909" y2="642.656" stroke-width="2" stroke="rgb(48,214,133)" />
	<circle cx="99.23" cy="589.085" r="2" fill="rgb(56,191,231)" />
	<line x1="99.23" y1="616.242" x2="99.23" y2="559.848" stroke-width="2" stroke="rgb(56,191,231)" />
	<circle cx="196.716" cy="731.306" r="2" fill="rgb(91,158,310)" />
	<line x1="154.906" y1="731.306" x2="220.221" y2="731.306" stroke-width="2" stroke="rgb(91,158,310)" />
	<circle cx="215.714" cy="859.024" r="2" fill="rgb(56,191,231)" />
	<line x1="215.714" y1="1000" x2="215.714" y2="731.306" stroke-width="2" stroke="rgb(56,191,231)" />
	<circle cx="174.426" cy="712.357" r="2" fill="rgb(56,191,231)" />
	<line x1="174.426" y1="731.306" x2="174.426" y2="559.848" stroke-width="2" stroke="rgb(56,191,231)" />
	<circle cx="65.414" cy="474.502" r="2" fill="rgb(143,125,346)" />
	<line x1="65.414" y1="559.848" x2="65.414" y2="364.877" stroke-width="2" stroke="rgb(143,125,346)" />
	<circle cx="48.28" cy="420.768" r="2" fill="rgb(91,158,310)" />
	<line x1="0" y1="420.768" x2="65.414" y2="420.768" stroke-width="2" stroke="rgb(91,158,310)" />
	<circle cx="50.184" cy="449.766" r="2" fill="rgb(56,191,231)" />
	<line x1="50.184" y1="559.848" x2="50.184" y2="420.768" stroke-width="2" stroke="rgb(56,191,231)" />
	<circle cx="55.396" cy="392.412" r="2" fill="rgb(56,191,231)" />
	<line x1="55.396" y1="420.768" x2="55.396" y2="364.877" stroke-width="2" stroke="rgb(56,191,231)" />
	<circle cx="112.451" cy="503.511" r="2" fill="rgb(91,158,310)" />
	<line x1="65.414" y1="503.511" x2="220.221" y2="503.511" stroke-width="2" stroke="rgb(91,158,310)" />
	<circle cx="101.893" cy="530.742" r="2" fill="rgb(56,191,231)" />
	<line x1="101.893" y1="559.848" x2="101.893" y2="503.511" stroke-width="2" stroke="rgb(56,191,231)" />
	<circle cx="88.925" cy="491.267" r="2" fill="rgb(56,191,231)" />
	<line x1="88.925" y1="503.511" x2="88.925" y2="364.877" stroke-width="2" stroke="rgb(56,191,231)" />
	<circle cx="229.621" cy="907.304" r="2" fill="rgb(198,99,332)" />
	<line x1="220.221" y1="907.304" x2="411.641" y2="907.304" stroke-width="2" stroke="rgb(198,99,332)" />
	<circle cx="318.342" cy="949.397" r="2" fill="rgb(143,125,346)" />
	<line x1="318.342" y1="1000" x2="318.342" y2="907.304" stroke-width="2" stroke="rgb(143,125,346)" />
	<circle cx="260.056" cy="947.93" r="2" fill="rgb(91,158,310)" />
	<line x1="220.221" y1="947.93" x2="318.342" y2="947.93" stroke-width="2" stroke="rgb(91,158,310)" />
	<circle cx="289.093" cy="950.721" r="2" fill="rgb(56,191,231)" />
	<line x1="289.093" y1="1000" x2="289.093" y2="947.93" stroke-width="2" stroke="rgb(56,191,231)" />
	<circle cx="234.478" cy="934.446" r="2" fill="rgb(56,191,231)" />
	<line x1="234.478" y1="947.93" x2="234.478" y2="907.304" stroke-width="2" stroke="rgb(56,191,231)" />
	<circle cx="347.321" cy="945.269" r="2" fill="rgb(91,158,310)" />
	<line x1="318.342" y1="945.269" x2="411.641" y2="945.269" stroke-width="2" stroke="rgb(91,158,310)" />
	<circle cx="405.039" cy="946.68" r="2" fill="rgb(56,191,231)" />
	<line x1="405.039" y1="1000" x2="405.039" y2="945.269" stroke-width="2" stroke="rgb(56,191,231)" />
	<circle cx="376.456" cy="942.412" r="2" fill="rgb(56,191,231)" />
	<line x1="376.456" y1="945.269" x2="376.456" y2="907.304" stroke-width="2" stroke="rgb(56,191,231)" />
	<circle cx="251.557" cy="814.463" r="2" fill="rgb(143,125,346)" />
	<line x1="251.557" y1="907.304" x2="251.557" y2="364.877" stroke-width="2" stroke="rgb(143,125,346)" />
	<circle cx="229.894" cy="833.504" r="2" fill="rgb(91,158,310)" />
	<line x1="220.221" y1="833.504" x2="251.557" y2="833.504" stroke-width="2" stroke="rgb(91,158,310)" />
	<circle cx="227.546" cy="882.634" r="2" fill="rgb(56,191,231)" />
	<line x1="227.546" y1="907.304" x2="227.546" y2="833.504" stroke-width="2" stroke="rgb(56,191,231)" />
	<circle cx="247.429" cy="759.254" r="2" fill="rgb(56,191,231)" />
	<line x1="247.429" y1="833.504" x2="247.429" y2="364.877" stroke-width="2" stroke="rgb(56,191,231)" />
	<circle cx="295.392" cy="781.159" r="2" fill="rgb(91,158,310)" />
	<line x1="251.557" y1="781.159" x2="411.641" y2="781.159" stroke-width="2" stroke="rgb(91,158,310)" />
	<circle cx="278.445" cy="802.877" r="2" fill="rgb(56,191,231)" />
	<line x1="278.445" y1="907.304" x2="278.445" y2="781.159" stroke-width="2" stroke="rgb(56,191,231)" />
	<circle cx="275.616" cy="767.243" r="2" fill="rgb(56,191,231)" />
	<line x1="275.616" y1="781.159" x2="275.616" y2="364.877" stroke-width="2" stroke="rgb(56,191,231)" />
	<circle cx="281.47" cy="184.425" r="2" fill="rgb(242,89,270)" />
	<line x1="281.47" y1="364.877" x2="281.47" y2="0" stroke-width="2" stroke="rgb(242,89,270)" />
	<circle cx="156.825" cy="213.641" r="2" fill="rgb(198,99,332)" />
	<line x1="0" y1="213.641" x2="281.47" y2="213.641" stroke-width="2" stroke="rgb(198,99,332)" />
	<circle cx="72.422" cy="306.286" r="2" fill="rgb(143,125,346)" />
	<line x1="72.422" y1="364.877" x2="72.422" y2="213.641" stroke-width="2" stroke="rgb(143,125,346)" />
	<circle cx="67.712" cy="335.223" r="2" fill="rgb(91,158,310)" />
	<line x1="0" y1="335.223" x2="72.422" y2="335.223" stroke-width="2" stroke="rgb(91,158,310)" />
	<circle cx="62.918" cy="364.111" r="2" fill="rgb(56,191,231)" />
	<line x1="62.918" y1="364.877" x2="62.918" y2="335.223" stroke-width="2" stroke="rgb(56,191,231)" />
	<circle cx="70.048" cy="277.248" r="2" fill="rgb(56,191,231)" />
	<line x1="70.048" y1="335.223" x2="70.048" y2="213.641" stroke-width="2" stroke="rgb(56,191,231)" />
	<circle cx="100.948" cy="230.849" r="2" fill="rgb(91,158,310)" />
	<line x1="72.422" y1="230.849" x2="281.47" y2="230.849" stroke-width="2" stroke="rgb(91,158,310)" />
	<circle cx="78.951" cy="249.608" r="2" fill="rgb(56,191,231)" />
	<line x1="78.951" y1="364.877" x2="78.951" y2="230.849" stroke-width="2" stroke="rgb(56,191,231)" />
	<circle cx="128.389" cy="220.649" r="2" fill="rgb(56,191,231)" />
	<line x1="128.389" y1="230.849" x2="128.389" y2="213.641" stroke-width="2" stroke="rgb(56,191,231)" />
	<circle cx="196.452" cy="119.497" r="2" fill="rgb(143,125,346)" />
	<line x1="196.452" y1="213.641" x2="196.452" y2="0" stroke-width="2" stroke="rgb(143,125,346)" />
	<circle cx="186.717" cy="177.071" r="2" fill="rgb(91,158,310)" />
	<line x1="0" y1="177.071" x2="196.452" y2="177.071" stroke-width="2" stroke="rgb(91,158,310)" />
	<circle cx="183.784" cy="206.233" r="2" fill="rgb(56,191,231)" />
	<line x1="183.784" y1="213.641" x2="183.784" y2="177.071" stroke-width="2" stroke="rgb(56,191,231)" />
	<circle cx="189.652" cy="147.918" r="2" fill="rgb(56,191,231)" />
	<line x1="189.652" y1="177.071" x2="189.652" y2="0" stroke-width="2" stroke="rgb(56,191,231)" />
	<circle cx="264.791" cy="82.149" r="2" fill="rgb(91,158,310)" />
	<line x1="196.452" y1="82.149" x2="281.47" y2="82.149" stroke-width="2" stroke="rgb(91,158,310)" />
	<circle cx="209.981" cy="93.954" r="2" fill="rgb(56,191,231)" />
	<line x1="209.981" y1="213.641" x2="209.981" y2="82.149" stroke-width="2" stroke="rgb(56,191,231)" />
	<circle cx="235.814" cy="80.401" r="2" fill="rgb(56,191,231)" />
	<line x1="235.814" y1="82.149" x2="235.814" y2="0" stroke-width="2" stroke="rgb(56,191,231)" />
	<circle cx="316.199" cy="163.643" r="2" fill="rgb(198,99,332)" />
	<line x1="281.47" y1="163.643" x2="411.641" y2="163.643" stroke-width="2" stroke="rgb(198,99,332)" />
	<circle cx="341.028" cy="332.998" r="2" fill="rgb(143,125,346)" />
	<line x1="341.028" y1="364.877" x2="341.028" y2="163.643" stroke-width="2" stroke="rgb(143,125,346)" />
	<circle cx="336.216" cy="278.241" r="2" fill="rgb(91,158,310)" />
	<line x1="281.47" y1="278.241" x2="341.028" y2="278.241" stroke-width="2" stroke="rgb(91,158,310)" />
	<circle cx="331.273" cy="305.457" r="2" fill="rgb(56,191,231)" />
	<line x1="331.273" y1="364.877" x2="331.273" y2="278.241" stroke-width="2" stroke="rgb(56,191,231)" />
	<circle cx="294.239" cy="183.043" r="2" fill="rgb(56,191,231)" />
	<line x1="294.239" y1="278.241" x2="294.239" y2="163.643" stroke-width="2" stroke="rgb(56,191,231)" />
	<circle cx="360.677" cy="262.231" r="2" fill="rgb(91,158,310)" />
	<line x1="341.028" y1="262.231" x2="411.641" y2="262.231" stroke-width="2" stroke="rgb(91,158,310)" />
	<circle cx="359.038" cy="355.927" r="2" fill="rgb(56,191,231)" />
	<line x1="359.038" y1="364.877" x2="359.038" y2="262.231" stroke-width="2" stroke="rgb(56,191,231)" />
	<circle cx="385.76" cy="247.2" r="2" fill="rgb(56,191,231)" />
	<line x1="385.76" y1="262.231" x2="385.76" y2="163.643" stroke-width="2" stroke="rgb(56,191,231)" />
	<circle cx="337.922" cy="143.98" r="2" fill="rgb(143,125,346)" />
	<line x1="337.922" y1="163.643" x2="337.922" y2="0" stroke-width="2" stroke="rgb(143,125,346)" />
	<circle cx="294.828" cy="128.038" r="2" fill="rgb(91,158,310)" />
	<line x1="281.47" y1="128.038" x2="337.922" y2="128.038" stroke-width="2" stroke="rgb(91,158,310)" />
	<circle cx="291.822" cy="157.073" r="2" fill="rgb(56,191,231)" />
	<line x1="291.822" y1="163.643" x2="291.822" y2="128.038" stroke-width="2" stroke="rgb(56,191,231)" />
	<circle cx="287.318" cy="100.052" r="2" fill="rgb(56,191,231)" />
	<line x1="287.318" y1="128.038" x2="287.318" y2="0" stroke-width="2" stroke="rgb(56,191,231)" />
	<circle cx="384.358" cy="108.327" r="2" fill="rgb(91,158,310)" />
	<line x1="337.922" y1="108.327" x2="411.641" y2="108.327" stroke-width="2" stroke="rgb(91,158,310)" />
	<circle cx="360.594" cy="125.446" r="2" fill="rgb(56,191,231)" />
	<line x1="360.594" y1="163.643" x2="360.594" y2="108.327" stroke-width="2" stroke="rgb(56,191,231)" />
	<circle cx="409.092" cy="92.598" r="2" fill="rgb(56,191,231)" />
	<line x1="409.092" y1="108.327" x2="409.092" y2="0" stroke-width="2" stroke="rgb(56,191,231)" />
	<circle cx="857.108" cy="527.777" r="2" fill="rgb(263,96,178)" />
	<line x1="411.641" y1="527.777" x2="1000" y2="527.777" stroke-width="2" stroke="rgb(263,96,178)" />
	<circle cx="827.086" cy="875.487" r="2" fill="rgb(242,89,270)" />
	<line x1="827.086" y1="1000" x2="827.086" y2="527.777" stroke-width="2" stroke="rgb(242,89,270)" />
	<circle cx="612.211" cy="950.102" r="2" fill="rgb(198,99,332)" />
	<line x1="411.641" y1="950.102" x2="827.086" y2="950.102" stroke-width="2" stroke="rgb(198,99,332)" />
	<circle cx="495.646" cy="962.338" r="2" fill="rgb(143,125,346)" />
	<line x1="495.646" y1="1000" x2="495.646" y2="950.102" stroke-width="2" stroke="rgb(143,125,346)" />
	<circle cx="460.879" cy="962.422" r="2" fill="rgb(91,158,310)" />
	<line x1="411.641" y1="962.422" x2="495.646" y2="962.422" stroke-width="2" stroke="rgb(91,158,310)" />
	<circle cx="466.398" cy="962.754" r="2" fill="rgb(56,191,231)" />
	<line x1="466.398" y1="1000" x2="466.398" y2="962.422" stroke-width="2" stroke="rgb(56,191,231)" />
	<circle cx="431.985" cy="957.971" r="2" fill="rgb(56,191,231)" />
	<line x1="431.985" y1="962.422" x2="431.985" y2="950.102" stroke-width="2" stroke="rgb(56,191,231)" />
	<circle cx="553.902" cy="956.145" r="2" fill="rgb(91,158,310)" />
	<line x1="495.646" y1="956.145" x2="827.086" y2="956.145" stroke-width="2" stroke="rgb(91,158,310)" />
	<circle cx="524.792" cy="959.314" r="2" fill="rgb(56,191,231)" />
	<line x1="524.792" y1="1000" x2="524.792" y2="956.145" stroke-width="2" stroke="rgb(56,191,231)" />
	<circle cx="583.033" cy="953.037" r="2" fill="rgb(56,191,231)" />
	<line x1="583.033" y1="956.145" x2="583.033" y2="950.102" stroke-width="2" stroke="rgb(56,191,231)" />
	<circle cx="727.405" cy="931.215" r="2" fill="rgb(143,125,346)" />
	<line x1="727.405" y1="950.102" x2="727.405" y2="527.777" stroke-width="2" stroke="rgb(143,125,346)" />
	<circle cx="670.493" cy="944.174" r="2" fill="rgb(91,158,310)" />
	<line x1="411.641" y1="944.174" x2="727.405" y2="944.174" stroke-width="2" stroke="rgb(91,158,310)" />
	<circle cx="641.352" cy="947.36" r="2" fill="rgb(56,191,231)" />
	<line x1="641.352" y1="950.102" x2="641.352" y2="944.174" stroke-width="2" stroke="rgb(56,191,231)" />
	<circle cx="699.412" cy="939.552" r="2" fill="rgb(56,191,231)" />
	<line x1="699.412" y1="944.174" x2="699.412" y2="527.777" stroke-width="2" stroke="rgb(56,191,231)" />
	<circle cx="771.238" cy="892.992" r="2" fill="rgb(91,158,310)" />
	<line x1="727.405" y1="892.992" x2="827.086" y2="892.992" stroke-width="2" stroke="rgb(91,158,310)" />
	<circle cx="750.292" cy="913.288" r="2" fill="rgb(56,191,231)" />
	<line x1="750.292" y1="950.102" x2="750.292" y2="892.992" stroke-width="2" stroke="rgb(56,191,231)" />
	<circle cx="799.277" cy="884.592" r="2" fill="rgb(56,191,231)" />
	<line x1="799.277" y1="892.992" x2="799.277" y2="527.777" stroke-width="2" stroke="rgb(56,191,231)" />
	<circle cx="951.221" cy="704.694" r="2" fill="rgb(198,99,332)" />
	<line x1="827.086" y1="704.694" x2="1000" y2="704.694" stroke-width="2" stroke="rgb(198,99,332)" />
	<circle cx="925.791" cy="814.368" r="2" fill="rgb(143,125,346)" />
	<line x1="925.791" y1="1000" x2="925.791" y2="704.694" stroke-width="2" stroke="rgb(143,125,346)" />
	<circle cx="879.966" cy="850.496" r="2" fill="rgb(91,158,310)" />
	<line x1="827.086" y1="850.496" x2="925.791" y2="850.496" stroke-width="2" stroke="rgb(91,158,310)" />
	<circle cx="854.159" cy="864.309" r="2" fill="rgb(56,191,231)" />
	<line x1="854.159" y1="1000" x2="854.159" y2="850.496" stroke-width="2" stroke="rgb(56,191,231)" />
	<circle cx="904.215" cy="834.109" r="2" fill="rgb(56,191,231)" />
	<line x1="904.215" y1="850.496" x2="904.215" y2="704.694" stroke-width="2" stroke="rgb(56,191,231)" />
	<circle cx="951.379" cy="762.758" r="2" fill="rgb(91,158,310)" />
	<line x1="925.791" y1="762.758" x2="1000" y2="762.758" stroke-width="2" stroke="rgb(91,158,310)" />
	<circle cx="942.767" cy="790.641" r="2" fill="rgb(56,191,231)" />
	<line x1="942.767" y1="1000" x2="942.767" y2="762.758" stroke-width="2" stroke="rgb(56,191,231)" />
	<circle cx="954.517" cy="733.633" r="2" fill="rgb(56,191,231)" />
	<line x1="954.517" y1="762.758" x2="954.517" y2="704.694" stroke-width="2" stroke="rgb(56,191,231)" />
	<circle cx="877.245" cy="642.813" r="2" fill="rgb(143,125,346)" />
	<line x1="877.245" y1="704.694" x2="877.245" y2="527.777" stroke-width="2" stroke="rgb(143,125,346)" />
	<circle cx="870.999" cy="584.568" r="2" fill="rgb(91,158,310)" />
	<line x1="827.086" y1="584.568" x2="877.245" y2="584.568" stroke-width="2" stroke="rgb(91,158,310)" />
	<circle cx="874.687" cy="613.621" r="2" fill="rgb(56,191,231)" />
	<line x1="874.687" y1="704.694" x2="874.687" y2="584.568" stroke-width="2" stroke="rgb(56,191,231)" />
	<circle cx="865.84" cy="555.727" r="2" fill="rgb(56,191,231)" />
	<line x1="865.84" y1="584.568" x2="865.84" y2="527.777" stroke-width="2" stroke="rgb(56,191,231)" />
	<circle cx="878.133" cy="671.708" r="2" fill="rgb(91,158,310)" />
	<line x1="877.245" y1="671.708" x2="1000" y2="671.708" stroke-width="2" stroke="rgb(91,158,310)" />
	<circle cx="934.226" cy="681.47" r="2" fill="rgb(56,191,231)" />
	<line x1="934.226" y1="704.694" x2="934.226" y2="671.708" stroke-width="2" stroke="rgb(56,191,231)" />
	<circle cx="907.419" cy="671.381" r="2" fill="rgb(56,191,231)" />
	<line x1="907.419" y1="671.708" x2="907.419" y2="527.777" stroke-width="2" stroke="rgb(56,191,231)" />
	<circle cx="546.968" cy="80.301" r="2" fill="rgb(242,89,270)" />
	<line x1="546.968" y1="527.777" x2="546.968" y2="0" stroke-width="2" stroke="rgb(242,89,270)" />
	<circle cx="491.11" cy="196.206" r="2" fill="rgb(198,99,332)" />
	<line x1="411.641" y1="196.206" x2="546.968" y2="196.206" stroke-width="2" stroke="rgb(198,99,332)" />
	<circle cx="464.395" cy="208.256" r="2" fill="rgb(143,125,346)" />
	<line x1="464.395" y1="527.777" x2="464.395" y2="196.206" stroke-width="2" stroke="rgb(143,125,346)" />
	<circle cx="414.68" cy="372.724" r="2" fill="rgb(91,158,310)" />
	<line x1="411.641" y1="372.724" x2="464.395" y2="372.724" stroke-width="2" stroke="rgb(91,158,310)" />
	<circle cx="442.726" cy="380.889" r="2" fill="rgb(56,191,231)" />
	<line x1="442.726" y1="527.777" x2="442.726" y2="372.724" stroke-width="2" stroke="rgb(56,191,231)" />
	<circle cx="437.456" cy="219.683" r="2" fill="rgb(56,191,231)" />
	<line x1="437.456" y1="372.724" x2="437.456" y2="196.206" stroke-width="2" stroke="rgb(56,191,231)" />
	<circle cx="500.146" cy="371.038" r="2" fill="rgb(91,158,310)" />
	<line x1="464.395" y1="371.038" x2="546.968" y2="371.038" stroke-width="2" stroke="rgb(91,158,310)" />
	<circle cx="471.751" cy="378.17" r="2" fill="rgb(56,191,231)" />
	<line x1="471.751" y1="527.777" x2="471.751" y2="371.038" stroke-width="2" stroke="rgb(56,191,231)" />
	<circle cx="528.503" cy="363.638" r="2" fill="rgb(56,191,231)" />
	<line x1="528.503" y1="371.038" x2="528.503" y2="196.206" stroke-width="2" stroke="rgb(56,191,231)" />
	<circle cx="510.09" cy="36.846" r="2" fill="rgb(143,125,346)" />
	<line x1="510.09" y1="196.206" x2="510.09" y2="0" stroke-width="2" stroke="rgb(143,125,346)" />
	<circle cx="458.01" cy="60.528" r="2" fill="rgb(91,158,310)" />
	<line x1="411.641" y1="60.528" x2="510.09" y2="60.528" stroke-width="2" stroke="rgb(91,158,310)" />
	<circle cx="433.775" cy="77.0099" r="2" fill="rgb(56,191,231)" />
	<line x1="433.775" y1="196.206" x2="433.775" y2="60.528" stroke-width="2" stroke="rgb(56,191,231)" />
	<circle cx="482.876" cy="45.031" r="2" fill="rgb(56,191,231)" />
	<line x1="482.876" y1="60.528" x2="482.876" y2="0" stroke-width="2" stroke="rgb(56,191,231)" />
	<circle cx="539.264" cy="163.662" r="2" fill="rgb(91,158,310)" />
	<line x1="510.09" y1="163.662" x2="546.968" y2="163.662" stroke-width="2" stroke="rgb(91,158,310)" />
	<circle cx="517.035" cy="182.644" r="2" fill="rgb(56,191,231)" />
	<line x1="517.035" y1="196.206" x2="517.035" y2="163.662" stroke-width="2" stroke="rgb(56,191,231)" />
	<circle cx="532.881" cy="54.916" r="2" fill="rgb(56,191,231)" />
	<line x1="532.881" y1="163.662" x2="532.881" y2="0" stroke-width="2" stroke="rgb(56,191,231)" />
	<circle cx="700.926" cy="361.966" r="2" fill="rgb(198,99,332)" />
	<line x1="546.968" y1="361.966" x2="1000" y2="361.966" stroke-width="2" stroke="rgb(198,99,332)" />
	<circle cx="796.348" cy="428.45" r="2" fill="rgb(143,125,346)" />
	<line x1="796.348" y1="527.777" x2="796.348" y2="361.966" stroke-width="2" stroke="rgb(143,125,346)" />
	<circle cx="752.366" cy="389.902" r="2" fill="rgb(91,158,310)" />
	<line x1="546.968" y1="389.902" x2="796.348" y2="389.902" stroke-width="2" stroke="rgb(91,158,310)" />
	<circle cx="775.314" cy="408.061" r="2" fill="rgb(56,191,231)" />
	<line x1="775.314" y1="527.777" x2="775.314" y2="389.902" stroke-width="2" stroke="rgb(56,191,231)" />
	<circle cx="727.205" cy="374.915" r="2" fill="rgb(56,191,231)" />
	<line x1="727.205" y1="389.902" x2="727.205" y2="361.966" stroke-width="2" stroke="rgb(56,191,231)" />
	<circle cx="831.425" cy="475.249" r="2" fill="rgb(91,158,310)" />
	<line x1="796.348" y1="475.249" x2="1000" y2="475.249" stroke-width="2" stroke="rgb(91,158,310)" />
	<circle cx="845.539" cy="500.923" r="2" fill="rgb(56,191,231)" />
	<line x1="845.539" y1="527.777" x2="845.539" y2="475.249" stroke-width="2" stroke="rgb(56,191,231)" />
	<circle cx="814.987" cy="451.032" r="2" fill="rgb(56,191,231)" />
	<line x1="814.987" y1="475.249" x2="814.987" y2="361.966" stroke-width="2" stroke="rgb(56,191,231)" />
	<circle cx="585.81" cy="351.679" r="2" fill="rgb(143,125,346)" />
	<line x1="585.81" y1="361.966" x2="585.81" y2="0" stroke-width="2" stroke="rgb(143,125,346)" />
	<circle cx="552.352" cy="138.013" r="2" fill="rgb(91,158,310)" />
	<line x1="546.968" y1="138.013" x2="585.81" y2="138.013" stroke-width="2" stroke="rgb(91,158,310)" />
	<circle cx="556.99" cy="356.783" r="2" fill="rgb(56,191,231)" />
	<line x1="556.99" y1="361.966" x2="556.99" y2="138.013" stroke-width="2" stroke="rgb(56,191,231)" />
	<circle cx="553.205" cy="108.775" r="2" fill="rgb(56,191,231)" />
	<line x1="553.205" y1="138.013" x2="553.205" y2="0" stroke-width="2" stroke="rgb(56,191,231)" />
	<circle cx="615.031" cy="349.649" r="2" fill="rgb(91,158,310)" />
	<line x1="585.81" y1="349.649" x2="1000" y2="349.649" stroke-width="2" stroke="rgb(91,158,310)" />
	<circle cx="673.436" cy="351.907" r="2" fill="rgb(56,191,231)" />
	<line x1="673.436" y1="361.966" x2="673.436" y2="349.649" stroke-width="2" stroke="rgb(56,191,231)" />
	<circle cx="644.32" cy="349.522" r="2" fill="rgb(56,191,231)" />
	<line x1="644.32" y1="349.649" x2="644.32" y2="0" stroke-width="2" stroke="rgb(56,191,231)" />
</svg>
