<?xml version="1.0" standalone="no" ?>
<!DOCTYPE svg PUBLIC "-//W3C//DTD SVG 1.1//EN" "http://www.w3.org/Graphics/SVG/1.1/DTD/svg11.dtd">
<svg width="1000px" height="1000px" xmlns="http://www.w3.org/2000/svg" version="1.1" >
	<polygon points="0,1000 1000,1000 1000,0 0,0 " fill="rgb(255,255,255)" />
	<circle cx="907.419" cy="671.381" r="2" fill="rgb(255,120,79)" />
	<circle cx="641.352" cy="947.36" r="2" fill="rgb(263,96,178)" />
	<circle cx="877.245" cy="642.813" r="2" fill="rgb(242,89,270)" />
	<circle cx="771.238" cy="892.992" r="2" fill="rgb(198,99,332)" />
	<circle cx="727.405" cy="931.215" r="2" fill="rgb(143,125,346)" />
	<circle cx="699.412" cy="939.552" r="2" fill="rgb(91,158,310)" />
	<circle cx="750.292" cy="913.288" r="2" fill="rgb(56,191,231)" />
	<path d="M654.97,903.449A116.738,116.738 0 0,0 664.313,939.84M664.313,939.84A365.465,365.465 0 0,0 738.852,981.062M738.852,981.062A57.2588,57.2588 0 0,0 756.671,939.552M756.671,939.552A57.2588,57.2588 0 0,0 654.97,903.449" fill="none" stroke-width="2" stroke="rgb(91,158,310)" />
	<path d="M738.852,981.062A365.465,365.465 0 0,0 783.425,996.031M783.425,996.031A85.6696,85.6696 0 0,0 813.075,931.215M813.075,931.215A85.6696,85.6696 0 0,0 654.718,885.874M654.718,885.874A116.738,116.738 0 0,0 654.5,892.992M654.5,892.992A116.738,116.738 0 0,0 654.97,903.449M654.97,903.449A57.2588,57.2588 0 0,1 756.671,939.552M756.671,939.552A57.2588,57.2588 0 0,1 738.852,981.062" fill="none" stroke-width="2" stroke="rgb(91,158,310)" />
	<circle cx="854.159" cy="864.309" r="2" fill="rgb(91,158,310)" />
	<circle cx="827.086" cy="875.487" r="2" fill="rgb(56,191,231)" />
	<circle cx="799.277" cy="884.592" r="2" fill="rgb(48,214,133)" />
	<path d="M850.271,893.34A29.2898,29.2898 0 0,1 824.869,864.309M824.869,864.309A29.2898,29.2898 0 0,1 830.922,846.478M830.922,846.478A29.2616,29.2616 0 0,0 797.824,875.487M797.824,875.487A29.2616,29.2616 0 0,0 799.277,884.592M799.277,884.592A85.6696,85.6696 0 0,1 804.765,894.408M804.765,894.408A29.2616,29.2616 0 0,0 850.271,893.34" fill="none" stroke-width="2" stroke="rgb(56,191,231)" />
	<path d="M804.765,894.408A85.6696,85.6696 0 0,1 813.075,931.215M813.075,931.215A85.6696,85.6696 0 0,1 783.425,996.031M783.425,996.031A365.465,365.465 0 0,0 795.418,999M795.418,999 820.126,999 M820.126,999A116.738,116.738 0 0,0 887.976,892.992M887.976,892.992A116.738,116.738 0 0,0 883.03,859.372M883.03,859.372A29.2898,29.2898 0 0,1 883.449,864.309M883.449,864.309A29.2898,29.2898 0 0,1 850.271,893.34M850.271,893.34A29.2616,29.2616 0 0,1 804.765,894.408" fill="none" stroke-width="2" stroke="rgb(56,191,231)" />
	<path d="M830.922,846.478A29.2898,29.2898 0 0,1 879.909,850.352M879.909,850.352A116.738,116.738 0 0,0 654.718,885.874M654.718,885.874A85.6696,85.6696 0 0,1 799.277,884.592M799.277,884.592A29.2616,29.2616 0 0,1 797.824,875.487M797.824,875.487A29.2616,29.2616 0 0,1 830.922,846.478" fill="none" stroke-width="2" stroke="rgb(56,191,231)" />
	<path d="M883.03,859.372A116.738,116.738 0 0,0 879.909,850.352M879.909,850.352A29.2898,29.2898 0 0,0 824.869,864.309M824.869,864.309A29.2898,29.2898 0 0,0 883.449,864.309M883.449,864.309A29.2898,29.2898 0 0,0 883.03,859.372" fill="none" stroke-width="2" stroke="rgb(91,158,310)" />
	<path d="M879.909,850.352A116.738,116.738 0 0,0 654.718,885.874M654.718,885.874A85.6696,85.6696 0 0,1 813.075,931.215M883.03,859.372A29.2898,29.2898 0 0,1 883.449,864.309M883.449,864.309A29.2898,29.2898 0 0,1 824.869,864.309M824.869,864.309A29.2898,29.2898 0 0,1 879.909,850.352" fill="none" stroke-width="2" stroke="rgb(91,158,310)" />
	<path d="M654.718,885.874A116.738,116.738 0 0,0 654.5,892.992M654.5,892.992A116.738,116.738 0 0,0 664.313,939.84M664.313,939.84A365.465,365.465 0 0,0 783.425,996.031" fill="none" stroke-width="2" stroke="rgb(143,125,346)" />
	<path d="M820.126,999A116.738,116.738 0 0,0 887.976,892.992M887.976,892.992A116.738,116.738 0 0,0 654.718,885.874" fill="none" stroke-width="2" stroke="rgb(143,125,346)" />
	<circle cx="951.379" cy="762.758" r="2" fill="rgb(143,125,346)" />
	<circle cx="942.767" cy="790.641" r="2" fill="rgb(91,158,310)" />
	<circle cx="954.517" cy="733.633" r="2" fill="rgb(56,191,231)" />
	<path d="M893.895,759.026A57.605,57.605 0 0,0 893.774,762.758M893.774,762.758A57.605,57.605 0 0,0 999,795.171M999,795.171 999,783.063 M999,783.063A393.58,393.58 0 0,0 978.958,745.054M978.958,745.054A58.2063,58.2063 0 0,0 893.895,759.026" fill="none" stroke-width="2" stroke="rgb(91,158,310)" />
	<path d="M978.958,745.054A393.58,393.58 0 0,0 951.58,705.153M951.58,705.153A57.605,57.605 0 0,0 893.895,759.026M893.895,759.026A58.2063,58.2063 0 0,1 978.958,745.054" fill="none" stroke-width="2" stroke="rgb(91,158,310)" />
	<circle cx="925.791" cy="814.368" r="2" fill="rgb(91,158,310)" />
	<circle cx="904.215" cy="834.109" r="2" fill="rgb(56,191,231)" />
	<circle cx="878.133" cy="671.708" r="2" fill="rgb(56,191,231)" />
	<circle cx="879.966" cy="850.496" r="2" fill="rgb(48,214,133)" />
	<path d="M999,803.464 999,795.171 M999,795.171A57.605,57.605 0 0,1 983.998,810.238M983.998,810.238A58.3538,58.3538 0 0,1 984.145,814.368M984.145,814.368A58.3538,58.3538 0 0,1 984.13,815.698M984.13,815.698A178.797,178.797 0 0,0 999,803.464" fill="none" stroke-width="2" stroke="rgb(56,191,231)" />
	<path d="M736.942,781.406A116.738,116.738 0 0,1 869.607,830.134M869.607,830.134A58.3538,58.3538 0 0,1 867.437,814.368M867.437,814.368A58.3538,58.3538 0 0,1 893.841,765.538M893.841,765.538A57.605,57.605 0 0,1 893.774,762.758M893.774,762.758A57.605,57.605 0 0,1 951.58,705.153M951.58,705.153A393.58,393.58 0 0,0 734.668,565.002M734.668,565.002A178.797,178.797 0 0,0 699.336,671.708M699.336,671.708A178.797,178.797 0 0,0 736.942,781.406" fill="none" stroke-width="2" stroke="rgb(56,191,231)" />
	<path d="M984.13,815.698A58.3538,58.3538 0 0,1 879.966,850.496M879.966,850.496A116.738,116.738 0 0,1 887.976,892.992M887.976,892.992A116.738,116.738 0 0,1 820.126,999M820.126,999 959.072,999 M959.072,999A365.465,365.465 0 0,0 999,987.401M999,987.401 999,803.464 M999,803.464A178.797,178.797 0 0,1 984.13,815.698" fill="none" stroke-width="2" stroke="rgb(56,191,231)" />
	<path d="M734.668,565.002A393.58,393.58 0 0,0 518.418,573.471M518.418,573.471A365.465,365.465 0 0,0 511.78,642.813M511.78,642.813A365.465,365.465 0 0,0 664.313,939.84M664.313,939.84A116.738,116.738 0 0,1 654.5,892.992M654.5,892.992A116.738,116.738 0 0,1 736.942,781.406M736.942,781.406A178.797,178.797 0 0,1 699.336,671.708M699.336,671.708A178.797,178.797 0 0,1 734.668,565.002" fill="none" stroke-width="2" stroke="rgb(56,191,231)" />
	<path d="M869.607,830.134A116.738,116.738 0 0,1 879.966,850.496M879.966,850.496A58.3538,58.3538 0 0,0 984.145,814.368M984.145,814.368A58.3538,58.3538 0 0,0 983.998,810.238M983.998,810.238A57.605,57.605 0 0,1 893.841,765.538M893.841,765.538A58.3538,58.3538 0 0,0 867.437,814.368M867.437,814.368A58.3538,58.3538 0 0,0 869.607,830.134" fill="none" stroke-width="2" stroke="rgb(91,158,310)" />
	<path d="M999,987.401 999,795.171 M983.998,810.238A58.3538,58.3538 0 0,1 984.145,814.368M984.145,814.368A58.3538,58.3538 0 0,1 879.966,850.496" fill="none" stroke-width="2" stroke="rgb(91,158,310)" />
	<path d="M893.774,762.758A57.605,57.605 0 0,1 951.58,705.153M951.58,705.153A393.58,393.58 0 0,0 518.418,573.471M664.313,939.84A116.738,116.738 0 0,1 654.5,892.992M654.5,892.992A116.738,116.738 0 0,1 869.607,830.134" fill="none" stroke-width="2" stroke="rgb(91,158,310)" />
	<path d="M999,795.171 999,783.063 M999,783.063A393.58,393.58 0 0,0 951.58,705.153M951.58,705.153A57.605,57.605 0 0,0 893.774,762.758" fill="none" stroke-width="2" stroke="rgb(143,125,346)" />
	<path d="M664.313,939.84A116.738,116.738 0 0,1 654.5,892.992M654.5,892.992A116.738,116.738 0 0,1 887.976,892.992M999,987.401 999,795.171 M999,795.171A57.605,57.605 0 0,1 893.774,762.758" fill="none" stroke-width="2" stroke="rgb(143,125,346)" />
	<path d="M664.313,939.84A365.465,365.465 0 0,0 795.418,999M820.126,999A116.738,116.738 0 0,0 887.976,892.992M887.976,892.992A116.738,116.738 0 0,0 654.5,892.992M654.5,892.992A116.738,116.738 0 0,0 664.313,939.84" fill="none" stroke-width="2" stroke="rgb(198,99,332)" />
	<path d="M999,987.401 999,783.063 M999,783.063A393.58,393.58 0 0,0 518.418,573.471" fill="none" stroke-width="2" stroke="rgb(198,99,332)" />
	<circle cx="553.902" cy="956.145" r="2" fill="rgb(198,99,332)" />
	<circle cx="583.033" cy="953.037" r="2" fill="rgb(143,125,346)" />
	<circle cx="612.211" cy="950.102" r="2" fill="rgb(91,158,310)" />
	<circle cx="524.792" cy="959.314" r="2" fill="rgb(56,191,231)" />
	<path d="M539.164,999 657.936,999 M657.936,999A87.8806,87.8806 0 0,0 670.914,953.037M670.914,953.037A87.8806,87.8806 0 0,0 670.464,944.154M670.464,944.154A365.465,365.465 0 0,1 587.62,865.709M587.62,865.709A87.903,87.903 0 0,0 524.308,950.102M524.308,950.102A87.903,87.903 0 0,0 539.164,999" fill="none" stroke-width="2" stroke="rgb(91,158,310)" />
	<path d="M587.62,865.709A365.465,365.465 0 0,1 587.275,865.259M587.275,865.259A87.8806,87.8806 0 0,0 495.152,953.037M495.152,953.037A87.8806,87.8806 0 0,0 508.13,999M508.13,999 539.164,999 M539.164,999A87.903,87.903 0 0,1 524.308,950.102M524.308,950.102A87.903,87.903 0 0,1 587.62,865.709" fill="none" stroke-width="2" stroke="rgb(91,158,310)" />
	<circle cx="460.879" cy="962.422" r="2" fill="rgb(91,158,310)" />
	<circle cx="495.646" cy="962.338" r="2" fill="rgb(56,191,231)" />
	<circle cx="466.398" cy="962.754" r="2" fill="rgb(48,214,133)" />
	<path d="M466.398,962.754A29.2509,29.2509 0 0,0 503.539,990.504M503.539,990.504A87.8806,87.8806 0 0,1 495.152,953.037M495.152,953.037A87.8806,87.8806 0 0,1 497.434,933.142M497.434,933.142A29.2509,29.2509 0 0,0 466.396,962.063M466.396,962.063A5.52899,5.52899 0 0,1 466.408,962.422M466.408,962.422A5.52899,5.52899 0 0,1 466.398,962.754" fill="none" stroke-width="2" stroke="rgb(56,191,231)" />
	<path d="M657.936,999 662.99,999 M662.99,999A117.204,117.204 0 0,0 671.106,956.145M671.106,956.145A117.204,117.204 0 0,0 670.493,944.174M670.493,944.174A365.465,365.465 0 0,1 670.464,944.154M670.464,944.154A87.8806,87.8806 0 0,1 670.914,953.037M670.914,953.037A87.8806,87.8806 0 0,1 657.936,999" fill="none" stroke-width="2" stroke="rgb(56,191,231)" />
	<path d="M466.396,962.063A29.2509,29.2509 0 0,1 497.434,933.142M497.434,933.142A87.8806,87.8806 0 0,1 587.275,865.259M587.275,865.259A365.465,365.465 0 0,1 569.533,839.988M569.533,839.988A117.204,117.204 0 0,0 436.698,956.145M436.698,956.145A117.204,117.204 0 0,0 444.814,999M444.814,999 508.13,999 M508.13,999A87.8806,87.8806 0 0,1 503.539,990.504M503.539,990.504A29.2509,29.2509 0 0,1 466.398,962.754M466.398,962.754A5.52899,5.52899 0 0,1 455.35,962.422M455.35,962.422A5.52899,5.52899 0 0,1 466.396,962.063" fill="none" stroke-width="2" stroke="rgb(56,191,231)" />
	<path d="M455.35,962.422A5.52899,5.52899 0 0,0 466.408,962.422M466.408,962.422A5.52899,5.52899 0 0,0 455.35,962.422" fill="none" stroke-width="2" stroke="rgb(91,158,310)" />
	<path d="" fill="none" stroke-width="2" stroke="rgb(91,158,310)" />
	<path d="M444.814,999 508.13,999 M508.13,999A87.8806,87.8806 0 0,1 495.152,953.037M495.152,953.037A87.8806,87.8806 0 0,1 587.275,865.259" fill="none" stroke-width="2" stroke="rgb(91,158,310)" />
	<path d="M508.13,999 657.936,999 M670.914,953.037A87.8806,87.8806 0 0,0 670.464,944.154M670.464,944.154A365.465,365.465 0 0,1 587.275,865.259" fill="none" stroke-width="2" stroke="rgb(143,125,346)" />
	<path d="" fill="none" stroke-width="2" stroke="rgb(143,125,346)" />
	<path d="" fill="none" stroke-width="2" stroke="rgb(143,125,346)" />
	<circle cx="278.445" cy="802.877" r="2" fill="rgb(143,125,346)" />
	<circle cx="347.321" cy="945.269" r="2" fill="rgb(91,158,310)" />
	<circle cx="295.392" cy="781.159" r="2" fill="rgb(56,191,231)" />
	<circle cx="318.342" cy="949.397" r="2" fill="rgb(48,214,133)" />
	<path d="M318.342,949.397A29.2715,29.2715 0 0,1 318.049,945.269M318.049,945.269A29.2715,29.2715 0 0,1 373.4,931.975M373.4,931.975A169.796,169.796 0 0,0 423.321,892.805M423.321,892.805A170.517,170.517 0 0,0 448.962,802.877M448.962,802.877A170.517,170.517 0 0,0 372.043,660.344M372.043,660.344A393.58,393.58 0 0,0 271.25,813.456M271.25,813.456A651.841,651.841 0 0,0 317.87,949.461M317.87,949.461A169.796,169.796 0 0,0 318.342,949.397" fill="none" stroke-width="2" stroke="rgb(56,191,231)" />
	<path d="M325.129,964.357A651.841,651.841 0 0,0 326.242,966.558M326.242,966.558A170.517,170.517 0 0,0 326.998,966.336M326.998,966.336A29.2715,29.2715 0 0,1 325.129,964.357" fill="none" stroke-width="2" stroke="rgb(56,191,231)" />
	<path d="M317.87,949.461A651.841,651.841 0 0,0 318.629,951.064M318.629,951.064A29.2715,29.2715 0 0,1 318.342,949.397M318.342,949.397A169.796,169.796 0 0,1 317.87,949.461" fill="none" stroke-width="2" stroke="rgb(56,191,231)" />
	<path d="M373.4,931.975A29.2715,29.2715 0 0,1 376.453,942.414M376.453,942.414A170.517,170.517 0 0,0 423.321,892.805M423.321,892.805A169.796,169.796 0 0,1 373.4,931.975" fill="none" stroke-width="2" stroke="rgb(56,191,231)" />
	<path d="M318.629,951.064A651.841,651.841 0 0,0 325.129,964.357M325.129,964.357A29.2715,29.2715 0 0,0 326.998,966.336M326.998,966.336A170.517,170.517 0 0,0 376.453,942.414M376.453,942.414A29.2715,29.2715 0 0,0 318.049,945.269M318.049,945.269A29.2715,29.2715 0 0,0 318.629,951.064" fill="none" stroke-width="2" stroke="rgb(91,158,310)" />
	<path d="" fill="none" stroke-width="2" stroke="rgb(91,158,310)" />
	<path d="M376.453,942.414A170.517,170.517 0 0,0 448.962,802.877M372.043,660.344A393.58,393.58 0 0,0 271.25,813.456M271.25,813.456A651.841,651.841 0 0,0 318.629,951.064M318.629,951.064A29.2715,29.2715 0 0,1 318.049,945.269M318.049,945.269A29.2715,29.2715 0 0,1 376.453,942.414" fill="none" stroke-width="2" stroke="rgb(91,158,310)" />
	<circle cx="376.456" cy="942.412" r="2" fill="rgb(91,158,310)" />
	<circle cx="405.039" cy="946.68" r="2" fill="rgb(56,191,231)" />
	<circle cx="670.493" cy="944.174" r="2" fill="rgb(56,191,231)" />
	<circle cx="431.985" cy="957.971" r="2" fill="rgb(48,214,133)" />
	<path d="M662.99,999 795.418,999 M795.418,999A365.465,365.465 0 0,1 670.493,944.174M670.493,944.174A117.204,117.204 0 0,1 671.106,956.145M671.106,956.145A117.204,117.204 0 0,1 662.99,999" fill="none" stroke-width="2" stroke="rgb(56,191,231)" />
	<path d="M437.962,999 444.814,999 M444.814,999A117.204,117.204 0 0,1 436.698,956.145M436.698,956.145A117.204,117.204 0 0,1 569.533,839.988M569.533,839.988A365.465,365.465 0 0,1 528.488,752.052M528.488,752.052A238.907,238.907 0 0,0 432.167,927.52M432.167,927.52A57.6676,57.6676 0 0,1 434.124,942.412M434.124,942.412A57.6676,57.6676 0 0,1 431.985,957.971M431.985,957.971A238.907,238.907 0 0,0 437.962,999" fill="none" stroke-width="2" stroke="rgb(56,191,231)" />
	<path d="M959.072,999 999,999 M999,999 999,987.401 M999,987.401A365.465,365.465 0 0,1 959.072,999" fill="none" stroke-width="2" stroke="rgb(56,191,231)" />
	<path d="M431.985,957.971A57.6676,57.6676 0 0,1 387.562,999M387.562,999 437.962,999 M437.962,999A238.907,238.907 0 0,1 431.985,957.971" fill="none" stroke-width="2" stroke="rgb(56,191,231)" />
	<path d="M528.488,752.052A365.465,365.465 0 0,1 511.78,642.813M511.78,642.813A365.465,365.465 0 0,1 518.418,573.471M518.418,573.471A393.58,393.58 0 0,0 372.043,660.344M372.043,660.344A170.517,170.517 0 0,1 448.962,802.877M448.962,802.877A170.517,170.517 0 0,1 417.361,901.763M417.361,901.763A57.6676,57.6676 0 0,1 432.167,927.52M432.167,927.52A238.907,238.907 0 0,1 528.488,752.052" fill="none" stroke-width="2" stroke="rgb(56,191,231)" />
	<path d="M334.102,981.549A651.841,651.841 0 0,0 343.893,999M343.893,999 365.35,999 M365.35,999A57.6676,57.6676 0 0,1 334.102,981.549" fill="none" stroke-width="2" stroke="rgb(56,191,231)" />
	<path d="M365.35,999 387.562,999 M387.562,999A57.6676,57.6676 0 0,0 434.124,942.412M434.124,942.412A57.6676,57.6676 0 0,0 417.361,901.763M417.361,901.763A170.517,170.517 0 0,1 326.242,966.558M326.242,966.558A651.841,651.841 0 0,0 334.102,981.549M334.102,981.549A57.6676,57.6676 0 0,0 365.35,999" fill="none" stroke-width="2" stroke="rgb(91,158,310)" />
	<path d="" fill="none" stroke-width="2" stroke="rgb(91,158,310)" />
	<path d="" fill="none" stroke-width="2" stroke="rgb(91,158,310)" />
	<path d="M387.562,999 444.814,999 M436.698,956.145A117.204,117.204 0 0,1 569.533,839.988M569.533,839.988A365.465,365.465 0 0,1 511.78,642.813M448.962,802.877A170.517,170.517 0 0,1 417.361,901.763M417.361,901.763A57.6676,57.6676 0 0,1 434.124,942.412M434.124,942.412A57.6676,57.6676 0 0,1 387.562,999" fill="none" stroke-width="2" stroke="rgb(91,158,310)" />
	<path d="" fill="none" stroke-width="2" stroke="rgb(91,158,310)" />
	<path d="M372.043,660.344A393.58,393.58 0 0,0 271.25,813.456M271.25,813.456A651.841,651.841 0 0,0 326.242,966.558M326.242,966.558A170.517,170.517 0 0,0 448.962,802.877" fill="none" stroke-width="2" stroke="rgb(143,125,346)" />
	<path d="" fill="none" stroke-width="2" stroke="rgb(143,125,346)" />
	<path d="" fill="none" stroke-width="2" stroke="rgb(143,125,346)" />
	<path d="M326.242,966.558A651.841,651.841 0 0,0 343.893,999M343.893,999 444.814,999 M372.043,660.344A170.517,170.517 0 0,1 448.962,802.877M448.962,802.877A170.517,170.517 0 0,1 326.242,966.558" fill="none" stroke-width="2" stroke="rgb(143,125,346)" />
	<path d="M444.814,999 662.99,999 M671.106,956.145A117.204,117.204 0 0,0 670.493,944.174M670.493,944.174A365.465,365.465 0 0,1 569.533,839.988" fill="none" stroke-width="2" stroke="rgb(198,99,332)" />
	<path d="" fill="none" stroke-width="2" stroke="rgb(198,99,332)" />
	<path d="" fill="none" stroke-width="2" stroke="rgb(198,99,332)" />
	<path d="M511.78,642.813A365.465,365.465 0 0,1 518.418,573.471M518.418,573.471A393.58,393.58 0 0,0 271.25,813.456M271.25,813.456A651.841,651.841 0 0,0 343.893,999" fill="none" stroke-width="2" stroke="rgb(198,99,332)" />
	<path d="M518.418,573.471A365.465,365.465 0 0,0 511.78,642.813M511.78,642.813A365.465,365.465 0 0,0 795.418,999M795.418,999 959.072,999 " fill="none" stroke-width="2" stroke="rgb(242,89,270)" />
	<path d="" fill="none" stroke-width="2" stroke="rgb(242,89,270)" />
	<path d="M343.893,999 795.418,999 M795.418,999A365.465,365.465 0 0,1 511.78,642.813" fill="none" stroke-width="2" stroke="rgb(242,89,270)" />
	<circle cx="934.226" cy="681.47" r="2" fill="rgb(242,89,270)" />
	<circle cx="644.32" cy="349.522" r="2" fill="rgb(198,99,332)" />
	<circle cx="796.348" cy="428.45" r="2" fill="rgb(143,125,346)" />
	<circle cx="775.314" cy="408.061" r="2" fill="rgb(91,158,310)" />
	<circle cx="752.366" cy="389.902" r="2" fill="rgb(56,191,231)" />
	<path d="M746.05,408.061A29.2636,29.2636 0 0,0 804.578,408.061M804.578,408.061A29.2636,29.2636 0 0,0 746.05,408.061" fill="none" stroke-width="2" stroke="rgb(91,158,310)" />
	<path d="M762.517,509.087A198.574,198.574 0 0,0 842.834,354.384M842.834,354.384A87.4457,87.4457 0 0,0 708.902,428.45M708.902,428.45A87.4457,87.4457 0 0,0 762.517,509.087" fill="none" stroke-width="2" stroke="rgb(91,158,310)" />
	<circle cx="673.436" cy="351.907" r="2" fill="rgb(91,158,310)" />
	<circle cx="727.205" cy="374.915" r="2" fill="rgb(56,191,231)" />
	<circle cx="700.926" cy="361.966" r="2" fill="rgb(48,214,133)" />
	<path d="M699.693,364.847A29.296,29.296 0 0,0 697.909,374.915M697.909,374.915A29.296,29.296 0 0,0 713.403,400.756M713.403,400.756A87.4457,87.4457 0 0,1 748.767,355.082M748.767,355.082A29.296,29.296 0 0,0 700.926,361.966M700.926,361.966A29.2726,29.2726 0 0,1 699.693,364.847" fill="none" stroke-width="2" stroke="rgb(56,191,231)" />
	<path d="M700.926,361.966A29.296,29.296 0 0,1 748.767,355.082M748.767,355.082A87.4457,87.4457 0 0,1 842.834,354.384M842.834,354.384A198.574,198.574 0 0,0 842.894,349.522M842.894,349.522A198.574,198.574 0 0,0 808.909,238.428M808.909,238.428A460.424,460.424 0 0,0 512.083,497.66M512.083,497.66A198.574,198.574 0 0,0 762.517,509.087M762.517,509.087A87.4457,87.4457 0 0,1 708.902,428.45M708.902,428.45A87.4457,87.4457 0 0,1 713.403,400.756M713.403,400.756A29.296,29.296 0 0,1 697.909,374.915M697.909,374.915A29.296,29.296 0 0,1 699.693,364.847M699.693,364.847A29.2726,29.2726 0 0,1 644.163,351.907M644.163,351.907A29.2726,29.2726 0 0,1 702.709,351.907M702.709,351.907A29.2726,29.2726 0 0,1 700.926,361.966" fill="none" stroke-width="2" stroke="rgb(56,191,231)" />
	<path d="M644.163,351.907A29.2726,29.2726 0 0,0 702.709,351.907M702.709,351.907A29.2726,29.2726 0 0,0 644.163,351.907" fill="none" stroke-width="2" stroke="rgb(91,158,310)" />
	<path d="M762.517,509.087A87.4457,87.4457 0 0,1 708.902,428.45M708.902,428.45A87.4457,87.4457 0 0,1 842.834,354.384" fill="none" stroke-width="2" stroke="rgb(91,158,310)" />
	<path d="" fill="none" stroke-width="2" stroke="rgb(143,125,346)" />
	<path d="" fill="none" stroke-width="2" stroke="rgb(143,125,346)" />
	<circle cx="951.221" cy="704.694" r="2" fill="rgb(143,125,346)" />
	<circle cx="870.999" cy="584.568" r="2" fill="rgb(91,158,310)" />
	<circle cx="874.687" cy="613.621" r="2" fill="rgb(56,191,231)" />
	<circle cx="865.84" cy="555.727" r="2" fill="rgb(48,214,133)" />
	<path d="M866.465,555.635A58.5661,58.5661 0 0,0 818.816,596.059M818.816,596.059A393.58,393.58 0 0,1 910.364,660.066M910.364,660.066A58.5661,58.5661 0 0,0 933.253,613.621M933.253,613.621A58.5661,58.5661 0 0,0 868.16,555.42M868.16,555.42A29.2862,29.2862 0 0,1 900.285,584.568M900.285,584.568A29.2862,29.2862 0 0,1 841.713,584.568M841.713,584.568A29.2862,29.2862 0 0,1 866.465,555.635" fill="none" stroke-width="2" stroke="rgb(56,191,231)" />
	<path d="M868.16,555.42A58.5661,58.5661 0 0,1 933.253,613.621M933.253,613.621A58.5661,58.5661 0 0,1 910.364,660.066M910.364,660.066A393.58,393.58 0 0,1 999,783.063M999,783.063 999,510.081 M999,510.081A200.392,200.392 0 0,0 791.574,583.576M791.574,583.576A393.58,393.58 0 0,1 818.816,596.059M818.816,596.059A58.5661,58.5661 0 0,1 866.465,555.635M866.465,555.635A29.2862,29.2862 0 0,1 868.16,555.42" fill="none" stroke-width="2" stroke="rgb(56,191,231)" />
	<path d="M841.713,584.568A29.2862,29.2862 0 0,0 900.285,584.568M900.285,584.568A29.2862,29.2862 0 0,0 841.713,584.568" fill="none" stroke-width="2" stroke="rgb(91,158,310)" />
	<path d="M791.574,583.576A393.58,393.58 0 0,1 999,783.063M999,510.081A200.392,200.392 0 0,0 791.574,583.576" fill="none" stroke-width="2" stroke="rgb(91,158,310)" />
	<circle cx="857.108" cy="527.777" r="2" fill="rgb(91,158,310)" />
	<circle cx="845.539" cy="500.923" r="2" fill="rgb(56,191,231)" />
	<circle cx="831.425" cy="475.249" r="2" fill="rgb(56,191,231)" />
	<circle cx="814.987" cy="451.032" r="2" fill="rgb(48,214,133)" />
	<path d="M809.185,494.277A58.4706,58.4706 0 0,1 860.1,469.383M860.1,469.383A29.2689,29.2689 0 0,0 814.987,451.032M814.987,451.032A198.574,198.574 0 0,1 802.792,469.18M802.792,469.18A29.2689,29.2689 0 0,0 802.156,475.249M802.156,475.249A29.2689,29.2689 0 0,0 809.185,494.277" fill="none" stroke-width="2" stroke="rgb(56,191,231)" />
	<path d="M860.1,469.383A58.4706,58.4706 0 0,1 912.183,508.141M912.183,508.141A200.392,200.392 0 0,1 999,510.081M999,510.081 999,225.625 M999,225.625A460.424,460.424 0 0,0 808.909,238.428M808.909,238.428A198.574,198.574 0 0,1 842.894,349.522M842.894,349.522A198.574,198.574 0 0,1 814.987,451.032M814.987,451.032A29.2689,29.2689 0 0,1 860.1,469.383" fill="none" stroke-width="2" stroke="rgb(56,191,231)" />
	<path d="M802.792,469.18A198.574,198.574 0 0,1 512.083,497.66M512.083,497.66A460.424,460.424 0 0,0 483.649,586.756M483.649,586.756A393.58,393.58 0 0,1 791.574,583.576M791.574,583.576A200.392,200.392 0 0,1 810.045,562.475M810.045,562.475A58.4706,58.4706 0 0,1 798.637,527.777M798.637,527.777A58.4706,58.4706 0 0,1 809.185,494.277M809.185,494.277A29.2689,29.2689 0 0,1 802.156,475.249M802.156,475.249A29.2689,29.2689 0 0,1 802.792,469.18" fill="none" stroke-width="2" stroke="rgb(56,191,231)" />
	<path d="M810.045,562.475A200.392,200.392 0 0,1 912.183,508.141M912.183,508.141A58.4706,58.4706 0 0,0 798.637,527.777M798.637,527.777A58.4706,58.4706 0 0,0 810.045,562.475" fill="none" stroke-width="2" stroke="rgb(91,158,310)" />
	<path d="M808.909,238.428A198.574,198.574 0 0,1 842.894,349.522M842.894,349.522A198.574,198.574 0 0,1 512.083,497.66M810.045,562.475A58.4706,58.4706 0 0,1 798.637,527.777M798.637,527.777A58.4706,58.4706 0 0,1 912.183,508.141" fill="none" stroke-width="2" stroke="rgb(91,158,310)" />
	<path d="" fill="none" stroke-width="2" stroke="rgb(143,125,346)" />
	<path d="M483.649,586.756A393.58,393.58 0 0,1 791.574,583.576M791.574,583.576A200.392,200.392 0 0,1 999,510.081" fill="none" stroke-width="2" stroke="rgb(143,125,346)" />
	<path d="M808.909,238.428A460.424,460.424 0 0,0 512.083,497.66M512.083,497.66A198.574,198.574 0 0,0 842.894,349.522" fill="none" stroke-width="2" stroke="rgb(198,99,332)" />
	<path d="M512.083,497.66A460.424,460.424 0 0,0 483.649,586.756M483.649,586.756A393.58,393.58 0 0,1 999,783.063M999,783.063 999,225.625 " fill="none" stroke-width="2" stroke="rgb(198,99,332)" />
	<circle cx="585.81" cy="351.679" r="2" fill="rgb(198,99,332)" />
	<circle cx="414.68" cy="372.724" r="2" fill="rgb(143,125,346)" />
	<circle cx="442.726" cy="380.889" r="2" fill="rgb(91,158,310)" />
	<circle cx="471.751" cy="378.17" r="2" fill="rgb(56,191,231)" />
	<path d="M413.574,380.889A29.1521,29.1521 0 0,0 471.878,380.889M471.878,380.889A29.1521,29.1521 0 0,0 413.574,380.889" fill="none" stroke-width="2" stroke="rgb(91,158,310)" />
	<path d="M415.55,287.246A182.044,182.044 0 0,0 403.766,351.679M403.766,351.679A182.044,182.044 0 0,0 436.235,455.444M436.235,455.444A85.4826,85.4826 0 0,0 500.163,372.724M500.163,372.724A85.4826,85.4826 0 0,0 415.55,287.246" fill="none" stroke-width="2" stroke="rgb(91,158,310)" />
	<circle cx="615.031" cy="349.649" r="2" fill="rgb(91,158,310)" />
	<circle cx="556.99" cy="356.783" r="2" fill="rgb(56,191,231)" />
	<circle cx="500.146" cy="371.038" r="2" fill="rgb(56,191,231)" />
	<circle cx="528.503" cy="363.638" r="2" fill="rgb(48,214,133)" />
	<path d="M529.266,367.737A87.6515,87.6515 0 0,1 528.503,363.638M528.503,363.638A29.3067,29.3067 0 0,0 494.554,342.27M494.554,342.27A85.4826,85.4826 0 0,1 500.163,372.724M500.163,372.724A85.4826,85.4826 0 0,1 495.693,400.004M495.693,400.004A29.3067,29.3067 0 0,0 529.453,371.038M529.453,371.038A29.3067,29.3067 0 0,0 529.266,367.737" fill="none" stroke-width="2" stroke="rgb(56,191,231)" />
	<path d="M495.693,400.004A85.4826,85.4826 0 0,1 436.235,455.444M436.235,455.444A182.044,182.044 0 0,0 505.021,514.814M505.021,514.814A460.424,460.424 0 0,1 557.933,416.151M557.933,416.151A87.6515,87.6515 0 0,1 529.266,367.737M529.266,367.737A29.3067,29.3067 0 0,1 529.453,371.038M529.453,371.038A29.3067,29.3067 0 0,1 495.693,400.004" fill="none" stroke-width="2" stroke="rgb(56,191,231)" />
	<path d="M528.503,363.638A87.6515,87.6515 0 0,1 527.379,349.649M527.379,349.649A87.6515,87.6515 0 0,1 683.697,295.172M683.697,295.172A460.424,460.424 0 0,1 744.266,262.059M744.266,262.059A182.044,182.044 0 0,0 415.55,287.246M415.55,287.246A85.4826,85.4826 0 0,1 494.554,342.27M494.554,342.27A29.3067,29.3067 0 0,1 528.503,363.638" fill="none" stroke-width="2" stroke="rgb(56,191,231)" />
	<path d="M557.933,416.151A460.424,460.424 0 0,1 683.697,295.172M683.697,295.172A87.6515,87.6515 0 0,0 527.379,349.649M527.379,349.649A87.6515,87.6515 0 0,0 557.933,416.151" fill="none" stroke-width="2" stroke="rgb(91,158,310)" />
	<path d="M744.266,262.059A182.044,182.044 0 0,0 415.55,287.246M415.55,287.246A85.4826,85.4826 0 0,1 500.163,372.724M500.163,372.724A85.4826,85.4826 0 0,1 436.235,455.444M505.021,514.814A460.424,460.424 0 0,1 557.933,416.151M557.933,416.151A87.6515,87.6515 0 0,1 527.379,349.649" fill="none" stroke-width="2" stroke="rgb(91,158,310)" />
	<path d="" fill="none" stroke-width="2" stroke="rgb(143,125,346)" />
	<path d="M436.235,455.444A182.044,182.044 0 0,0 505.021,514.814M505.021,514.814A460.424,460.424 0 0,1 744.266,262.059" fill="none" stroke-width="2" stroke="rgb(143,125,346)" />
	<circle cx="539.264" cy="163.662" r="2" fill="rgb(143,125,346)" />
	<circle cx="517.035" cy="182.644" r="2" fill="rgb(91,158,310)" />
	<circle cx="552.352" cy="138.013" r="2" fill="rgb(56,191,231)" />
	<circle cx="491.11" cy="196.206" r="2" fill="rgb(48,214,133)" />
	<path d="M491.11,196.206A29.2581,29.2581 0 0,1 487.777,182.644M487.777,182.644A29.2581,29.2581 0 0,1 490.508,170.301M490.508,170.301A651.841,651.841 0 0,0 479.069,180.044M479.069,180.044A84.4808,84.4808 0 0,0 491.11,196.206" fill="none" stroke-width="2" stroke="rgb(56,191,231)" />
	<path d="M545.064,174.254A182.044,182.044 0 0,1 625.783,174.078M625.783,174.078A87.1436,87.1436 0 0,0 626.408,163.662M626.408,163.662A87.1436,87.1436 0 0,0 596.867,98.2719M596.867,98.2719A651.841,651.841 0 0,0 510.859,154.045M510.859,154.045A29.2581,29.2581 0 0,1 545.064,174.254" fill="none" stroke-width="2" stroke="rgb(56,191,231)" />
	<path d="M479.069,180.044A651.841,651.841 0 0,0 459.21,198.09M459.21,198.09A87.1436,87.1436 0 0,0 467.597,213.239M467.597,213.239A182.044,182.044 0 0,1 491.11,196.206M491.11,196.206A84.4808,84.4808 0 0,1 479.069,180.044" fill="none" stroke-width="2" stroke="rgb(56,191,231)" />
	<path d="M510.859,154.045A651.841,651.841 0 0,0 490.508,170.301M490.508,170.301A29.2581,29.2581 0 0,0 487.777,182.644M487.777,182.644A29.2581,29.2581 0 0,0 491.11,196.206M491.11,196.206A182.044,182.044 0 0,1 545.064,174.254M545.064,174.254A29.2581,29.2581 0 0,0 510.859,154.045" fill="none" stroke-width="2" stroke="rgb(91,158,310)" />
	<path d="M490.508,170.301A651.841,651.841 0 0,0 459.21,198.09M467.597,213.239A182.044,182.044 0 0,1 491.11,196.206M487.777,182.644A29.2581,29.2581 0 0,1 490.508,170.301" fill="none" stroke-width="2" stroke="rgb(91,158,310)" />
	<path d="" fill="none" stroke-width="2" stroke="rgb(91,158,310)" />
	<circle cx="275.616" cy="767.243" r="2" fill="rgb(91,158,310)" />
	<circle cx="386.504" cy="364.877" r="2" fill="rgb(56,191,231)" />
	<circle cx="359.038" cy="355.927" r="2" fill="rgb(56,191,231)" />
	<circle cx="464.395" cy="208.256" r="2" fill="rgb(48,214,133)" />
	<path d="M455.08,202.035A651.841,651.841 0 0,0 338.979,352.363M338.979,352.363A419.69,419.69 0 0,1 404.484,367.827M404.484,367.827A182.044,182.044 0 0,1 403.766,351.679M403.766,351.679A182.044,182.044 0 0,1 467.597,213.239M467.597,213.239A87.1436,87.1436 0 0,1 464.395,208.256M464.395,208.256A181.402,181.402 0 0,0 455.08,202.035" fill="none" stroke-width="2" stroke="rgb(56,191,231)" />
	<path d="M625.783,174.078A182.044,182.044 0 0,1 744.266,262.059M744.266,262.059A460.424,460.424 0 0,1 999,225.625M999,225.625 999,26.0057 M999,26.0057A651.841,651.841 0 0,0 596.867,98.2719M596.867,98.2719A87.1436,87.1436 0 0,1 626.408,163.662M626.408,163.662A87.1436,87.1436 0 0,1 625.783,174.078" fill="none" stroke-width="2" stroke="rgb(56,191,231)" />
	<path d="M464.395,208.256A87.1436,87.1436 0 0,1 459.21,198.09M459.21,198.09A651.841,651.841 0 0,0 455.08,202.035M455.08,202.035A181.402,181.402 0 0,1 464.395,208.256" fill="none" stroke-width="2" stroke="rgb(56,191,231)" />
	<path d="M338.979,352.363A651.841,651.841 0 0,0 255.578,671.381M255.578,671.381A651.841,651.841 0 0,0 271.25,813.456M271.25,813.456A393.58,393.58 0 0,1 483.649,586.756M483.649,586.756A460.424,460.424 0 0,1 505.021,514.814M505.021,514.814A182.044,182.044 0 0,1 404.484,367.827M404.484,367.827A419.69,419.69 0 0,0 338.979,352.363" fill="none" stroke-width="2" stroke="rgb(91,158,310)" />
	<path d="" fill="none" stroke-width="2" stroke="rgb(91,158,310)" />
	<path d="M403.766,351.679A182.044,182.044 0 0,1 467.597,213.239M467.597,213.239A87.1436,87.1436 0 0,1 459.21,198.09M459.21,198.09A651.841,651.841 0 0,0 338.979,352.363" fill="none" stroke-width="2" stroke="rgb(91,158,310)" />
	<path d="M467.597,213.239A182.044,182.044 0 0,1 625.783,174.078M626.408,163.662A87.1436,87.1436 0 0,0 596.867,98.2719M596.867,98.2719A651.841,651.841 0 0,0 459.21,198.09M459.21,198.09A87.1436,87.1436 0 0,0 467.597,213.239" fill="none" stroke-width="2" stroke="rgb(143,125,346)" />
	<path d="" fill="none" stroke-width="2" stroke="rgb(143,125,346)" />
	<path d="M459.21,198.09A651.841,651.841 0 0,0 255.578,671.381M483.649,586.756A460.424,460.424 0 0,1 505.021,514.814M505.021,514.814A182.044,182.044 0 0,1 403.766,351.679M467.597,213.239A87.1436,87.1436 0 0,1 459.21,198.09" fill="none" stroke-width="2" stroke="rgb(143,125,346)" />
	<path d="M505.021,514.814A460.424,460.424 0 0,1 744.266,262.059M744.266,262.059A182.044,182.044 0 0,0 403.766,351.679M403.766,351.679A182.044,182.044 0 0,0 505.021,514.814" fill="none" stroke-width="2" stroke="rgb(198,99,332)" />
	<path d="M999,225.625 999,26.0057 M999,26.0057A651.841,651.841 0 0,0 255.578,671.381M505.021,514.814A182.044,182.044 0 0,1 403.766,351.679M403.766,351.679A182.044,182.044 0 0,1 744.266,262.059" fill="none" stroke-width="2" stroke="rgb(198,99,332)" />
	<path d="M999,783.063 999,225.625 M999,225.625A460.424,460.424 0 0,0 483.649,586.756" fill="none" stroke-width="2" stroke="rgb(242,89,270)" />
	<path d="M271.25,813.456A393.58,393.58 0 0,1 483.649,586.756M483.649,586.756A460.424,460.424 0 0,1 999,225.625" fill="none" stroke-width="2" stroke="rgb(242,89,270)" />
	<path d="M343.893,999 999,999 M999,999 999,783.063 M999,783.063A393.58,393.58 0 0,0 271.25,813.456" fill="none" stroke-width="2" stroke="rgb(263,96,178)" />
	<path d="M999,783.063 999,26.0057 M255.578,671.381A651.841,651.841 0 0,0 271.25,813.456M271.25,813.456A393.58,393.58 0 0,1 999,783.063" fill="none" stroke-width="2" stroke="rgb(263,96,178)" />
	<circle cx="227.546" cy="882.634" r="2" fill="rgb(263,96,178)" />
	<circle cx="336.216" cy="278.241" r="2" fill="rgb(242,89,270)" />
	<circle cx="70.048" cy="277.248" r="2" fill="rgb(198,99,332)" />
	<circle cx="50.184" cy="449.766" r="2" fill="rgb(143,125,346)" />
	<circle cx="48.28" cy="420.768" r="2" fill="rgb(91,158,310)" />
	<circle cx="55.396" cy="392.412" r="2" fill="rgb(56,191,231)" />
	<path d="M19.0447,420.768A29.2353,29.2353 0 0,0 77.5153,420.768M77.5153,420.768A29.2353,29.2353 0 0,0 19.0447,420.768" fill="none" stroke-width="2" stroke="rgb(91,158,310)" />
	<path d="M1,378.493 1,462.08 M1,462.08A197.308,197.308 0 0,0 135.715,463.308M135.715,463.308A86.5964,86.5964 0 0,0 136.78,449.766M136.78,449.766A86.5964,86.5964 0 0,0 1,378.493" fill="none" stroke-width="2" stroke="rgb(91,158,310)" />
	<circle cx="72.422" cy="306.286" r="2" fill="rgb(91,158,310)" />
	<circle cx="67.712" cy="335.223" r="2" fill="rgb(56,191,231)" />
	<circle cx="62.918" cy="364.111" r="2" fill="rgb(48,214,133)" />
	<path d="M45.021,316.713A29.2831,29.2831 0 0,0 38.4289,335.223M38.4289,335.223A29.2831,29.2831 0 0,0 62.918,364.111M62.918,364.111A86.5964,86.5964 0 0,1 63.6477,364.223M63.6477,364.223A29.2831,29.2831 0 0,0 96.9951,335.223M96.9951,335.223A29.2831,29.2831 0 0,0 95.1018,324.865M95.1018,324.865A29.3179,29.3179 0 0,1 45.021,316.713" fill="none" stroke-width="2" stroke="rgb(56,191,231)" />
	<path d="M95.1018,324.865A29.2831,29.2831 0 0,1 96.9951,335.223M96.9951,335.223A29.2831,29.2831 0 0,1 63.6477,364.223M63.6477,364.223A86.5964,86.5964 0 0,1 136.78,449.766M136.78,449.766A86.5964,86.5964 0 0,1 135.715,463.308M135.715,463.308A197.308,197.308 0 0,0 267.356,277.248M267.356,277.248A197.308,197.308 0 0,0 265.358,249.235M265.358,249.235A634.526,634.526 0 0,0 1,289.928M1,289.928 1,378.493 M1,378.493A86.5964,86.5964 0 0,1 62.918,364.111M62.918,364.111A29.2831,29.2831 0 0,1 38.4289,335.223M38.4289,335.223A29.2831,29.2831 0 0,1 45.021,316.713M45.021,316.713A29.3179,29.3179 0 0,1 43.1041,306.286M43.1041,306.286A29.3179,29.3179 0 0,1 101.74,306.286M101.74,306.286A29.3179,29.3179 0 0,1 95.1018,324.865" fill="none" stroke-width="2" stroke="rgb(56,191,231)" />
	<path d="M43.1041,306.286A29.3179,29.3179 0 0,0 101.74,306.286M101.74,306.286A29.3179,29.3179 0 0,0 43.1041,306.286" fill="none" stroke-width="2" stroke="rgb(91,158,310)" />
	<path d="M1,289.928 1,378.493 M1,378.493A86.5964,86.5964 0 0,1 136.78,449.766" fill="none" stroke-width="2" stroke="rgb(91,158,310)" />
	<path d="" fill="none" stroke-width="2" stroke="rgb(143,125,346)" />
	<path d="" fill="none" stroke-width="2" stroke="rgb(143,125,346)" />
	<circle cx="331.273" cy="305.457" r="2" fill="rgb(143,125,346)" />
	<circle cx="341.028" cy="332.998" r="2" fill="rgb(91,158,310)" />
	<circle cx="112.451" cy="503.511" r="2" fill="rgb(56,191,231)" />
	<path d="M203.599,582.869A305.382,305.382 0 0,0 259.257,602.226M259.257,602.226A651.841,651.841 0 0,1 393.635,270.23M393.635,270.23A634.526,634.526 0 0,0 265.358,249.235M265.358,249.235A197.308,197.308 0 0,1 267.356,277.248M267.356,277.248A197.308,197.308 0 0,1 92.7299,473.248M92.7299,473.248A285.17,285.17 0 0,0 203.599,582.869" fill="none" stroke-width="2" stroke="rgb(91,158,310)" />
	<path d="M92.7299,473.248A197.308,197.308 0 0,1 76.904,474.437M76.904,474.437A305.382,305.382 0 0,0 203.599,582.869M203.599,582.869A285.17,285.17 0 0,1 92.7299,473.248" fill="none" stroke-width="2" stroke="rgb(91,158,310)" />
	<circle cx="101.893" cy="530.742" r="2" fill="rgb(91,158,310)" />
	<circle cx="98.89" cy="559.848" r="2" fill="rgb(56,191,231)" />
	<circle cx="88.925" cy="491.267" r="2" fill="rgb(56,191,231)" />
	<circle cx="65.414" cy="474.502" r="2" fill="rgb(48,214,133)" />
	<path d="M66.3324,509.251A41.5505,41.5505 0 0,1 88.925,491.267M88.925,491.267A305.382,305.382 0 0,1 76.904,474.437M76.904,474.437A197.308,197.308 0 0,1 65.414,474.502M65.414,474.502A28.8762,28.8762 0 0,0 60.0488,491.267M60.0488,491.267A28.8762,28.8762 0 0,0 66.3324,509.251" fill="none" stroke-width="2" stroke="rgb(56,191,231)" />
	<path d="M65.414,474.502A197.308,197.308 0 0,1 1,462.08M1,462.08 1,479.28 M1,479.28A390.879,390.879 0 0,0 255.665,660.73M255.665,660.73A651.841,651.841 0 0,1 259.257,602.226M259.257,602.226A305.382,305.382 0 0,1 141.128,544.419M141.128,544.419A41.5505,41.5505 0 0,1 60.3425,530.742M60.3425,530.742A41.5505,41.5505 0 0,1 66.3324,509.251M66.3324,509.251A28.8762,28.8762 0 0,1 60.0488,491.267M60.0488,491.267A28.8762,28.8762 0 0,1 65.414,474.502" fill="none" stroke-width="2" stroke="rgb(56,191,231)" />
	<path d="M141.128,544.419A305.382,305.382 0 0,1 88.925,491.267M88.925,491.267A41.5505,41.5505 0 0,0 60.3425,530.742M60.3425,530.742A41.5505,41.5505 0 0,0 141.128,544.419" fill="none" stroke-width="2" stroke="rgb(91,158,310)" />
	<path d="M88.925,491.267A305.382,305.382 0 0,1 76.904,474.437M76.904,474.437A197.308,197.308 0 0,1 1,462.08M141.128,544.419A41.5505,41.5505 0 0,1 60.3425,530.742M60.3425,530.742A41.5505,41.5505 0 0,1 88.925,491.267" fill="none" stroke-width="2" stroke="rgb(91,158,310)" />
	<path d="M265.358,249.235A197.308,197.308 0 0,1 267.356,277.248M267.356,277.248A197.308,197.308 0 0,1 76.904,474.437M76.904,474.437A305.382,305.382 0 0,0 259.257,602.226" fill="none" stroke-width="2" stroke="rgb(143,125,346)" />
	<path d="M255.665,660.73A651.841,651.841 0 0,1 259.257,602.226M259.257,602.226A305.382,305.382 0 0,1 76.904,474.437" fill="none" stroke-width="2" stroke="rgb(143,125,346)" />
	<path d="M1,289.928 1,462.08 M1,462.08A197.308,197.308 0 0,0 267.356,277.248" fill="none" stroke-width="2" stroke="rgb(198,99,332)" />
	<path d="M1,479.28A390.879,390.879 0 0,0 255.665,660.73M255.665,660.73A651.841,651.841 0 0,1 393.635,270.23M265.358,249.235A197.308,197.308 0 0,1 267.356,277.248M267.356,277.248A197.308,197.308 0 0,1 1,462.08" fill="none" stroke-width="2" stroke="rgb(198,99,332)" />
	<circle cx="229.621" cy="907.304" r="2" fill="rgb(198,99,332)" />
	<circle cx="229.894" cy="833.504" r="2" fill="rgb(143,125,346)" />
	<circle cx="215.714" cy="859.024" r="2" fill="rgb(91,158,310)" />
	<circle cx="251.557" cy="814.463" r="2" fill="rgb(56,191,231)" />
	<path d="M158.546,860.523A76.2925,76.2925 0 0,0 244.636,908.359M244.636,908.359A57.1874,57.1874 0 0,0 272.901,859.024M272.901,859.024A57.1874,57.1874 0 0,0 158.527,859.024M158.527,859.024A57.1874,57.1874 0 0,0 158.546,860.523" fill="none" stroke-width="2" stroke="rgb(91,158,310)" />
	<path d="M244.636,908.359A76.2925,76.2925 0 0,0 290.021,880.465M290.021,880.465A651.841,651.841 0 0,1 262.251,764.413M262.251,764.413A76.2925,76.2925 0 0,0 153.602,833.504M153.602,833.504A76.2925,76.2925 0 0,0 158.546,860.523M158.546,860.523A57.1874,57.1874 0 0,1 158.527,859.024M158.527,859.024A57.1874,57.1874 0 0,1 272.901,859.024M272.901,859.024A57.1874,57.1874 0 0,1 244.636,908.359" fill="none" stroke-width="2" stroke="rgb(91,158,310)" />
	<circle cx="247.429" cy="759.254" r="2" fill="rgb(91,158,310)" />
	<circle cx="234.478" cy="934.446" r="2" fill="rgb(56,191,231)" />
	<circle cx="260.056" cy="947.93" r="2" fill="rgb(56,191,231)" />
	<circle cx="289.093" cy="950.721" r="2" fill="rgb(48,214,133)" />
	<path d="M288.925,943.743A189.098,189.098 0 0,1 230.887,947.627M230.887,947.627A29.1708,29.1708 0 0,0 230.885,947.93M230.885,947.93A29.1708,29.1708 0 0,0 289.227,947.93M289.227,947.93A29.1708,29.1708 0 0,0 288.925,943.743" fill="none" stroke-width="2" stroke="rgb(56,191,231)" />
	<path d="M230.887,947.627A189.098,189.098 0 0,1 81.3312,849.64M81.3312,849.64A159.107,159.107 0 0,0 70.5141,907.304M70.5141,907.304A159.107,159.107 0 0,0 99.5946,999M99.5946,999 343.893,999 M343.893,999A651.841,651.841 0 0,1 312.125,936.94M312.125,936.94A189.098,189.098 0 0,1 288.925,943.743M288.925,943.743A29.1708,29.1708 0 0,1 289.227,947.93M289.227,947.93A29.1708,29.1708 0 0,1 230.885,947.93M230.885,947.93A29.1708,29.1708 0 0,1 230.887,947.627" fill="none" stroke-width="2" stroke="rgb(56,191,231)" />
	<path d="M312.125,936.94A651.841,651.841 0 0,1 290.021,880.465M290.021,880.465A76.2925,76.2925 0 0,1 153.602,833.504M153.602,833.504A76.2925,76.2925 0 0,1 262.251,764.413M262.251,764.413A651.841,651.841 0 0,1 260.486,751.22M260.486,751.22A159.107,159.107 0 0,0 81.3312,849.64M81.3312,849.64A189.098,189.098 0 0,0 312.125,936.94" fill="none" stroke-width="2" stroke="rgb(91,158,310)" />
	<path d="M343.893,999A651.841,651.841 0 0,1 312.125,936.94M312.125,936.94A189.098,189.098 0 0,1 81.3312,849.64" fill="none" stroke-width="2" stroke="rgb(91,158,310)" />
	<path d="M262.251,764.413A76.2925,76.2925 0 0,0 153.602,833.504M153.602,833.504A76.2925,76.2925 0 0,0 290.021,880.465" fill="none" stroke-width="2" stroke="rgb(143,125,346)" />
	<path d="M262.251,764.413A651.841,651.841 0 0,1 260.486,751.22M260.486,751.22A159.107,159.107 0 0,0 70.5141,907.304M99.5946,999 343.893,999 M343.893,999A651.841,651.841 0 0,1 290.021,880.465" fill="none" stroke-width="2" stroke="rgb(143,125,346)" />
	<circle cx="174.426" cy="712.357" r="2" fill="rgb(143,125,346)" />
	<circle cx="220.221" cy="748.475" r="2" fill="rgb(91,158,310)" />
	<circle cx="154.906" cy="690.534" r="2" fill="rgb(56,191,231)" />
	<circle cx="196.716" cy="731.306" r="2" fill="rgb(48,214,133)" />
	<path d="M196.716,731.306A29.1077,29.1077 0 0,1 200.372,727.185M200.372,727.185A58.3989,58.3989 0 0,0 213.305,690.534M213.305,690.534A58.3989,58.3989 0 0,0 206.629,663.419M206.629,663.419A58.5824,58.5824 0 0,0 115.844,712.357M115.844,712.357A58.5824,58.5824 0 0,0 122.215,738.925M122.215,738.925A58.3989,58.3989 0 0,0 196.716,731.306" fill="none" stroke-width="2" stroke="rgb(56,191,231)" />
	<path d="M200.372,727.185A29.1077,29.1077 0 0,1 232.217,721.954M232.217,721.954A58.5824,58.5824 0 0,0 233.008,712.357M233.008,712.357A58.5824,58.5824 0 0,0 206.629,663.419M206.629,663.419A58.3989,58.3989 0 0,1 213.305,690.534M213.305,690.534A58.3989,58.3989 0 0,1 200.372,727.185" fill="none" stroke-width="2" stroke="rgb(56,191,231)" />
	<path d="M122.215,738.925A58.5824,58.5824 0 0,0 154.059,767.285M154.059,767.285A159.107,159.107 0 0,1 191.443,752.845M191.443,752.845A29.1077,29.1077 0 0,1 191.113,748.475M191.113,748.475A29.1077,29.1077 0 0,1 196.716,731.306M196.716,731.306A58.3989,58.3989 0 0,1 122.215,738.925" fill="none" stroke-width="2" stroke="rgb(56,191,231)" />
	<path d="M191.443,752.845A159.107,159.107 0 0,1 220.565,748.455M220.565,748.455A58.5824,58.5824 0 0,0 232.217,721.954M232.217,721.954A29.1077,29.1077 0 0,0 191.113,748.475M191.113,748.475A29.1077,29.1077 0 0,0 191.443,752.845" fill="none" stroke-width="2" stroke="rgb(91,158,310)" />
	<path d="M232.217,721.954A58.5824,58.5824 0 0,0 233.008,712.357M233.008,712.357A58.5824,58.5824 0 0,0 115.844,712.357M115.844,712.357A58.5824,58.5824 0 0,0 154.059,767.285M191.443,752.845A29.1077,29.1077 0 0,1 191.113,748.475M191.113,748.475A29.1077,29.1077 0 0,1 232.217,721.954" fill="none" stroke-width="2" stroke="rgb(91,158,310)" />
	<circle cx="135.909" cy="668.217" r="2" fill="rgb(91,158,310)" />
	<circle cx="122.099" cy="642.656" r="2" fill="rgb(56,191,231)" />
	<circle cx="109.692" cy="616.242" r="2" fill="rgb(56,191,231)" />
	<circle cx="99.23" cy="589.085" r="2" fill="rgb(48,214,133)" />
	<path d="M87.8091,635.428A58.2128,58.2128 0 0,1 130.011,610.304M130.011,610.304A390.879,390.879 0 0,1 99.23,589.085M99.23,589.085A29.1025,29.1025 0 0,0 80.5895,616.242M80.5895,616.242A29.1025,29.1025 0 0,0 87.8091,635.428" fill="none" stroke-width="2" stroke="rgb(56,191,231)" />
	<path d="M192.99,656.794A58.5824,58.5824 0 0,1 233.008,712.357M233.008,712.357A58.5824,58.5824 0 0,1 220.565,748.455M220.565,748.455A159.107,159.107 0 0,1 260.486,751.22M260.486,751.22A651.841,651.841 0 0,1 255.578,671.381M255.578,671.381A651.841,651.841 0 0,1 255.665,660.73M255.665,660.73A390.879,390.879 0 0,1 186.419,639.277M186.419,639.277A58.2128,58.2128 0 0,1 192.99,656.794" fill="none" stroke-width="2" stroke="rgb(56,191,231)" />
	<path d="M99.23,589.085A390.879,390.879 0 0,1 1,479.28M1,479.28 1,999 M1,999 99.5946,999 M99.5946,999A159.107,159.107 0 0,1 70.5141,907.304M70.5141,907.304A159.107,159.107 0 0,1 154.059,767.285M154.059,767.285A58.5824,58.5824 0 0,1 116.861,723.225M116.861,723.225A58.2128,58.2128 0 0,1 77.6962,668.217M77.6962,668.217A58.2128,58.2128 0 0,1 87.8091,635.428M87.8091,635.428A29.1025,29.1025 0 0,1 80.5895,616.242M80.5895,616.242A29.1025,29.1025 0 0,1 99.23,589.085" fill="none" stroke-width="2" stroke="rgb(56,191,231)" />
	<path d="M116.861,723.225A58.5824,58.5824 0 0,1 115.844,712.357M115.844,712.357A58.5824,58.5824 0 0,1 192.99,656.794M192.99,656.794A58.2128,58.2128 0 0,0 186.419,639.277M186.419,639.277A390.879,390.879 0 0,1 130.011,610.304M130.011,610.304A58.2128,58.2128 0 0,0 77.6962,668.217M77.6962,668.217A58.2128,58.2128 0 0,0 116.861,723.225" fill="none" stroke-width="2" stroke="rgb(91,158,310)" />
	<path d="" fill="none" stroke-width="2" stroke="rgb(91,158,310)" />
	<path d="M130.011,610.304A390.879,390.879 0 0,1 1,479.28M116.861,723.225A58.2128,58.2128 0 0,1 77.6962,668.217M77.6962,668.217A58.2128,58.2128 0 0,1 130.011,610.304" fill="none" stroke-width="2" stroke="rgb(91,158,310)" />
	<path d="M154.059,767.285A159.107,159.107 0 0,1 220.565,748.455M220.565,748.455A58.5824,58.5824 0 0,0 233.008,712.357M115.844,712.357A58.5824,58.5824 0 0,0 154.059,767.285" fill="none" stroke-width="2" stroke="rgb(143,125,346)" />
	<path d="M255.578,671.381A651.841,651.841 0 0,1 255.665,660.73M255.665,660.73A390.879,390.879 0 0,1 1,479.28M70.5141,907.304A159.107,159.107 0 0,1 154.059,767.285M154.059,767.285A58.5824,58.5824 0 0,1 115.844,712.357M115.844,712.357A58.5824,58.5824 0 0,1 233.008,712.357" fill="none" stroke-width="2" stroke="rgb(143,125,346)" />
	<path d="M99.5946,999 343.893,999 M343.893,999A651.841,651.841 0 0,1 260.486,751.22" fill="none" stroke-width="2" stroke="rgb(198,99,332)" />
	<path d="M99.5946,999A159.107,159.107 0 0,1 70.5141,907.304M70.5141,907.304A159.107,159.107 0 0,1 260.486,751.22" fill="none" stroke-width="2" stroke="rgb(198,99,332)" />
	<path d="M255.665,660.73A651.841,651.841 0 0,1 393.635,270.23M393.635,270.23A634.526,634.526 0 0,0 1,289.928M1,289.928 1,479.28 " fill="none" stroke-width="2" stroke="rgb(242,89,270)" />
	<path d="M1,999 343.893,999 M343.893,999A651.841,651.841 0 0,1 255.578,671.381" fill="none" stroke-width="2" stroke="rgb(242,89,270)" />
	<circle cx="291.822" cy="157.073" r="2" fill="rgb(242,89,270)" />
	<circle cx="384.358" cy="108.327" r="2" fill="rgb(198,99,332)" />
	<circle cx="337.922" cy="143.98" r="2" fill="rgb(143,125,346)" />
	<circle cx="316.199" cy="163.643" r="2" fill="rgb(91,158,310)" />
	<circle cx="360.594" cy="125.446" r="2" fill="rgb(56,191,231)" />
	<path d="M313.362,105.146A45.9483,45.9483 0 0,0 291.974,143.98M291.974,143.98A45.9483,45.9483 0 0,0 374.125,172.275M374.125,172.275A58.5655,58.5655 0 0,0 374.765,163.643M374.765,163.643A58.5655,58.5655 0 0,0 313.362,105.146" fill="none" stroke-width="2" stroke="rgb(91,158,310)" />
	<path d="M374.125,172.275A45.9483,45.9483 0 0,0 383.87,143.98M383.87,143.98A45.9483,45.9483 0 0,0 313.362,105.146M313.362,105.146A58.5655,58.5655 0 0,1 374.765,163.643M374.765,163.643A58.5655,58.5655 0 0,1 374.125,172.275" fill="none" stroke-width="2" stroke="rgb(91,158,310)" />
	<circle cx="294.828" cy="128.038" r="2" fill="rgb(91,158,310)" />
	<circle cx="294.239" cy="183.043" r="2" fill="rgb(56,191,231)" />
	<circle cx="287.318" cy="100.052" r="2" fill="rgb(48,214,133)" />
	<path d="M317.172,102.984A83.2791,83.2791 0 0,0 261.976,106.267M261.976,106.267A122.399,122.399 0 0,0 261.959,108.327M261.959,108.327A122.399,122.399 0 0,0 363.708,228.972M363.708,228.972A83.2791,83.2791 0 0,0 377.518,183.043M377.518,183.043A83.2791,83.2791 0 0,0 376.354,169.165M376.354,169.165A45.9483,45.9483 0 0,1 291.974,143.98M291.974,143.98A45.9483,45.9483 0 0,1 317.172,102.984" fill="none" stroke-width="2" stroke="rgb(56,191,231)" />
	<path d="M376.354,169.165A83.2791,83.2791 0 0,1 377.518,183.043M377.518,183.043A83.2791,83.2791 0 0,1 363.708,228.972M363.708,228.972A122.399,122.399 0 0,0 393.948,230.35M393.948,230.35A125.695,125.695 0 0,0 417.517,157.073M417.517,157.073A125.695,125.695 0 0,0 289.149,31.4065M289.149,31.4065A122.399,122.399 0 0,0 261.976,106.267M261.976,106.267A83.2791,83.2791 0 0,1 317.172,102.984M317.172,102.984A45.9483,45.9483 0 0,1 383.87,143.98M383.87,143.98A45.9483,45.9483 0 0,1 376.354,169.165" fill="none" stroke-width="2" stroke="rgb(56,191,231)" />
	<path d="M312.938,105.418A28.9761,28.9761 0 0,0 265.852,128.038M265.852,128.038A28.9761,28.9761 0 0,0 293.856,156.998M293.856,156.998A45.9483,45.9483 0 0,1 291.974,143.98M291.974,143.98A45.9483,45.9483 0 0,1 312.938,105.418" fill="none" stroke-width="2" stroke="rgb(91,158,310)" />
	<path d="M417.517,157.073A125.695,125.695 0 0,0 289.149,31.4065M289.149,31.4065A122.399,122.399 0 0,0 261.959,108.327M261.959,108.327A122.399,122.399 0 0,0 393.948,230.35" fill="none" stroke-width="2" stroke="rgb(91,158,310)" />
	<path d="M291.974,143.98A45.9483,45.9483 0 0,0 383.87,143.98M383.87,143.98A45.9483,45.9483 0 0,0 291.974,143.98" fill="none" stroke-width="2" stroke="rgb(143,125,346)" />
	<path d="" fill="none" stroke-width="2" stroke="rgb(143,125,346)" />
	<circle cx="209.981" cy="93.954" r="2" fill="rgb(143,125,346)" />
	<circle cx="264.791" cy="82.149" r="2" fill="rgb(91,158,310)" />
	<circle cx="196.452" cy="119.497" r="2" fill="rgb(56,191,231)" />
	<circle cx="235.814" cy="80.401" r="2" fill="rgb(48,214,133)" />
	<path d="M250.614,107.481A29.0297,29.0297 0 0,1 235.761,82.149M235.761,82.149A29.0297,29.0297 0 0,1 235.814,80.401M235.814,80.401A55.4785,55.4785 0 0,0 206.353,64.9091M206.353,64.9091A125.695,125.695 0 0,0 168.3,133.804M168.3,133.804A57.666,57.666 0 0,0 249.408,136.036M249.408,136.036A55.4785,55.4785 0 0,0 251.931,119.497M251.931,119.497A55.4785,55.4785 0 0,0 250.614,107.481" fill="none" stroke-width="2" stroke="rgb(56,191,231)" />
	<path d="M249.408,136.036A57.666,57.666 0 0,0 262.349,118.098M262.349,118.098A122.399,122.399 0 0,1 261.989,111.043M261.989,111.043A29.0297,29.0297 0 0,1 250.614,107.481M250.614,107.481A55.4785,55.4785 0 0,1 251.931,119.497M251.931,119.497A55.4785,55.4785 0 0,1 249.408,136.036" fill="none" stroke-width="2" stroke="rgb(56,191,231)" />
	<path d="M235.814,80.401A29.0297,29.0297 0 0,1 253.045,55.6019M253.045,55.6019A57.666,57.666 0 0,0 237.934,43.5157M237.934,43.5157A125.695,125.695 0 0,0 206.353,64.9091M206.353,64.9091A55.4785,55.4785 0 0,1 235.814,80.401" fill="none" stroke-width="2" stroke="rgb(56,191,231)" />
	<path d="M261.989,111.043A122.399,122.399 0 0,1 261.959,108.327M261.959,108.327A122.399,122.399 0 0,1 265.596,78.7109M265.596,78.7109A57.666,57.666 0 0,0 253.045,55.6019M253.045,55.6019A29.0297,29.0297 0 0,0 235.761,82.149M235.761,82.149A29.0297,29.0297 0 0,0 261.989,111.043" fill="none" stroke-width="2" stroke="rgb(91,158,310)" />
	<path d="M253.045,55.6019A57.666,57.666 0 0,0 237.934,43.5157M237.934,43.5157A125.695,125.695 0 0,0 168.3,133.804M168.3,133.804A57.666,57.666 0 0,0 262.349,118.098M262.349,118.098A122.399,122.399 0 0,1 261.989,111.043M261.989,111.043A29.0297,29.0297 0 0,1 235.761,82.149M235.761,82.149A29.0297,29.0297 0 0,1 253.045,55.6019" fill="none" stroke-width="2" stroke="rgb(91,158,310)" />
	<circle cx="189.652" cy="147.918" r="2" fill="rgb(91,158,310)" />
	<circle cx="186.717" cy="177.071" r="2" fill="rgb(56,191,231)" />
	<circle cx="183.784" cy="206.233" r="2" fill="rgb(56,191,231)" />
	<circle cx="281.47" cy="184.425" r="2" fill="rgb(48,214,133)" />
	<path d="M252.229,133.203A57.666,57.666 0 0,1 247.389,137.841M247.389,137.841A58.6096,58.6096 0 0,1 248.262,147.918M248.262,147.918A58.6096,58.6096 0 0,1 175.542,204.804M175.542,204.804A125.695,125.695 0 0,0 205.553,248.489M205.553,248.489A634.526,634.526 0 0,1 273.894,249.803M273.894,249.803A100.091,100.091 0 0,0 283.875,206.233M283.875,206.233A100.091,100.091 0 0,0 252.229,133.203" fill="none" stroke-width="2" stroke="rgb(56,191,231)" />
	<path d="M265.596,78.7109A122.399,122.399 0 0,1 289.149,31.4065M289.149,31.4065A125.695,125.695 0 0,0 237.934,43.5157M237.934,43.5157A57.666,57.666 0 0,1 265.596,78.7109" fill="none" stroke-width="2" stroke="rgb(56,191,231)" />
	<path d="M273.894,249.803A634.526,634.526 0 0,1 360.677,262.231M360.677,262.231A125.695,125.695 0 0,0 393.948,230.35M393.948,230.35A122.399,122.399 0 0,1 262.349,118.098M262.349,118.098A57.666,57.666 0 0,1 252.229,133.203M252.229,133.203A100.091,100.091 0 0,1 283.875,206.233M283.875,206.233A100.091,100.091 0 0,1 273.894,249.803" fill="none" stroke-width="2" stroke="rgb(56,191,231)" />
	<path d="M247.389,137.841A57.666,57.666 0 0,1 168.3,133.804M168.3,133.804A125.695,125.695 0 0,0 166.127,157.073M166.127,157.073A125.695,125.695 0 0,0 175.542,204.804M175.542,204.804A58.6096,58.6096 0 0,0 248.262,147.918M248.262,147.918A58.6096,58.6096 0 0,0 247.389,137.841" fill="none" stroke-width="2" stroke="rgb(91,158,310)" />
	<path d="" fill="none" stroke-width="2" stroke="rgb(91,158,310)" />
	<path d="M175.542,204.804A125.695,125.695 0 0,0 205.553,248.489M205.553,248.489A634.526,634.526 0 0,1 360.677,262.231M393.948,230.35A122.399,122.399 0 0,1 262.349,118.098M262.349,118.098A57.666,57.666 0 0,1 247.389,137.841" fill="none" stroke-width="2" stroke="rgb(91,158,310)" />
	<path d="M262.349,118.098A122.399,122.399 0 0,1 261.959,108.327M261.959,108.327A122.399,122.399 0 0,1 265.596,78.7109M265.596,78.7109A57.666,57.666 0 0,0 237.934,43.5157M168.3,133.804A57.666,57.666 0 0,0 262.349,118.098" fill="none" stroke-width="2" stroke="rgb(143,125,346)" />
	<path d="" fill="none" stroke-width="2" stroke="rgb(143,125,346)" />
	<path d="M168.3,133.804A125.695,125.695 0 0,0 166.127,157.073M166.127,157.073A125.695,125.695 0 0,0 205.553,248.489M393.948,230.35A122.399,122.399 0 0,1 262.349,118.098M262.349,118.098A57.666,57.666 0 0,1 168.3,133.804" fill="none" stroke-width="2" stroke="rgb(143,125,346)" />
	<path d="" fill="none" stroke-width="2" stroke="rgb(198,99,332)" />
	<path d="M289.149,31.4065A125.695,125.695 0 0,0 166.127,157.073M360.677,262.231A125.695,125.695 0 0,0 393.948,230.35M393.948,230.35A122.399,122.399 0 0,1 261.959,108.327M261.959,108.327A122.399,122.399 0 0,1 289.149,31.4065" fill="none" stroke-width="2" stroke="rgb(198,99,332)" />
	<circle cx="546.968" cy="80.301" r="2" fill="rgb(198,99,332)" />
	<circle cx="482.876" cy="45.031" r="2" fill="rgb(143,125,346)" />
	<circle cx="458.01" cy="60.528" r="2" fill="rgb(91,158,310)" />
	<circle cx="510.09" cy="36.846" r="2" fill="rgb(56,191,231)" />
	<path d="M453.309,3.50986A50.9727,50.9727 0 0,0 431.903,45.031M431.903,45.031A50.9727,50.9727 0 0,0 507.127,89.8652M507.127,89.8652A57.2116,57.2116 0 0,0 515.222,60.528M515.222,60.528A57.2116,57.2116 0 0,0 453.309,3.50986" fill="none" stroke-width="2" stroke="rgb(91,158,310)" />
	<path d="M507.127,89.8652A50.9727,50.9727 0 0,0 533.849,45.031M533.849,45.031A50.9727,50.9727 0 0,0 508.556,1M508.556,1 457.196,1 M457.196,1A50.9727,50.9727 0 0,0 453.309,3.50986M453.309,3.50986A57.2116,57.2116 0 0,1 515.222,60.528M515.222,60.528A57.2116,57.2116 0 0,1 507.127,89.8652" fill="none" stroke-width="2" stroke="rgb(91,158,310)" />
	<circle cx="532.881" cy="54.916" r="2" fill="rgb(91,158,310)" />
	<circle cx="553.205" cy="108.775" r="2" fill="rgb(56,191,231)" />
	<circle cx="409.092" cy="92.598" r="2" fill="rgb(56,191,231)" />
	<circle cx="433.775" cy="77.0099" r="2" fill="rgb(48,214,133)" />
	<path d="M438.274,91.7893A101.539,101.539 0 0,1 433.775,77.01M433.775,77.01A29.1931,29.1931 0 0,0 386.379,74.2584M386.379,74.2584A125.695,125.695 0 0,1 412.408,121.602M412.408,121.602A29.1931,29.1931 0 0,0 438.285,92.598M438.285,92.598A29.1931,29.1931 0 0,0 438.274,91.7893" fill="none" stroke-width="2" stroke="rgb(56,191,231)" />
	<path d="M630.999,81.0522A651.841,651.841 0 0,1 721.023,46.7589M721.023,46.7589A177.257,177.257 0 0,0 705.497,1M705.497,1 618.923,1 M618.923,1A101.539,101.539 0 0,1 634.42,54.916M634.42,54.916A101.539,101.539 0 0,1 630.999,81.0522" fill="none" stroke-width="2" stroke="rgb(56,191,231)" />
	<path d="M433.775,77.01A101.539,101.539 0 0,1 431.342,54.916M431.342,54.916A101.539,101.539 0 0,1 431.91,44.1901M431.91,44.1901A50.9727,50.9727 0 0,1 435.424,26.4166M435.424,26.4166A101.539,101.539 0 0,1 446.839,1M446.839,1 388.439,1 M388.439,1A177.257,177.257 0 0,0 370.946,59.4073M370.946,59.4073A125.695,125.695 0 0,1 386.379,74.2584M386.379,74.2584A29.1931,29.1931 0 0,1 433.775,77.01" fill="none" stroke-width="2" stroke="rgb(56,191,231)" />
	<path d="M412.408,121.602A125.695,125.695 0 0,1 417.517,157.073M417.517,157.073A125.695,125.695 0 0,1 411.703,194.859M411.703,194.859A177.257,177.257 0 0,0 437.456,219.683M437.456,219.683A651.841,651.841 0 0,1 510.866,154.04M510.866,154.04A101.539,101.539 0 0,1 438.274,91.7893M438.274,91.7893A29.1931,29.1931 0 0,1 438.285,92.598M438.285,92.598A29.1931,29.1931 0 0,1 412.408,121.602" fill="none" stroke-width="2" stroke="rgb(56,191,231)" />
	<path d="M510.866,154.04A651.841,651.841 0 0,1 630.999,81.0522M630.999,81.0522A101.539,101.539 0 0,0 634.42,54.916M634.42,54.916A101.539,101.539 0 0,0 618.923,1M618.923,1 508.556,1 M508.556,1A50.9727,50.9727 0 0,1 533.849,45.031M533.849,45.031A50.9727,50.9727 0 0,1 431.903,45.031M431.903,45.031A50.9727,50.9727 0 0,1 431.91,44.1901M431.91,44.1901A101.539,101.539 0 0,0 431.342,54.916M431.342,54.916A101.539,101.539 0 0,0 510.866,154.04" fill="none" stroke-width="2" stroke="rgb(91,158,310)" />
	<path d="M435.424,26.4166A50.9727,50.9727 0 0,1 457.196,1M457.196,1 446.839,1 M446.839,1A101.539,101.539 0 0,0 435.424,26.4166" fill="none" stroke-width="2" stroke="rgb(91,158,310)" />
	<path d="" fill="none" stroke-width="2" stroke="rgb(91,158,310)" />
	<path d="M388.439,1A177.257,177.257 0 0,0 370.946,59.4073M370.946,59.4073A125.695,125.695 0 0,1 417.517,157.073M437.456,219.683A651.841,651.841 0 0,1 510.866,154.04M510.866,154.04A101.539,101.539 0 0,1 431.342,54.916" fill="none" stroke-width="2" stroke="rgb(91,158,310)" />
	<path d="M508.556,1 457.196,1 M457.196,1A50.9727,50.9727 0 0,0 431.903,45.031M431.903,45.031A50.9727,50.9727 0 0,0 533.849,45.031" fill="none" stroke-width="2" stroke="rgb(143,125,346)" />
	<path d="M457.196,1 388.439,1 M411.703,194.859A177.257,177.257 0 0,0 437.456,219.683M437.456,219.683A651.841,651.841 0 0,1 721.023,46.7589M705.497,1 508.556,1 M533.849,45.031A50.9727,50.9727 0 0,1 431.903,45.031M431.903,45.031A50.9727,50.9727 0 0,1 457.196,1" fill="none" stroke-width="2" stroke="rgb(143,125,346)" />
	<circle cx="360.677" cy="262.231" r="2" fill="rgb(143,125,346)" />
	<circle cx="437.456" cy="219.683" r="2" fill="rgb(91,158,310)" />
	<circle cx="411.641" cy="233.463" r="2" fill="rgb(56,191,231)" />
	<circle cx="385.76" cy="247.2" r="2" fill="rgb(48,214,133)" />
	<path d="M401.128,260.813A651.841,651.841 0 0,1 417.657,241.231M417.657,241.231A29.2627,29.2627 0 0,1 408.193,219.683M408.193,219.683A29.2627,29.2627 0 0,1 412.638,204.179M412.638,204.179A29.3007,29.3007 0 0,0 408.285,204.355M408.285,204.355A125.695,125.695 0 0,1 383.836,242.704M383.836,242.704A29.3007,29.3007 0 0,0 401.128,260.813" fill="none" stroke-width="2" stroke="rgb(56,191,231)" />
	<path d="M361.818,52.6712A125.695,125.695 0 0,1 370.946,59.4073M370.946,59.4073A177.257,177.257 0 0,1 371.831,52.9651M371.831,52.9651A209.563,209.563 0 0,0 361.818,52.6712" fill="none" stroke-width="2" stroke="rgb(56,191,231)" />
	<path d="M151.331,252.701A634.526,634.526 0 0,1 205.553,248.489M205.553,248.489A125.695,125.695 0 0,1 168.141,179.486M168.141,179.486A209.563,209.563 0 0,0 151.331,252.701" fill="none" stroke-width="2" stroke="rgb(56,191,231)" />
	<path d="M412.638,204.179A29.2627,29.2627 0 0,1 416.017,199.767M416.017,199.767A177.257,177.257 0 0,1 411.703,194.859M411.703,194.859A125.695,125.695 0 0,1 408.285,204.355M408.285,204.355A29.3007,29.3007 0 0,1 412.638,204.179" fill="none" stroke-width="2" stroke="rgb(56,191,231)" />
	<path d="M383.836,242.704A125.695,125.695 0 0,1 360.677,262.231M360.677,262.231A634.526,634.526 0 0,1 393.635,270.23M393.635,270.23A651.841,651.841 0 0,1 401.128,260.813M401.128,260.813A29.3007,29.3007 0 0,1 383.836,242.704" fill="none" stroke-width="2" stroke="rgb(56,191,231)" />
	<path d="M417.657,241.231A651.841,651.841 0 0,1 437.456,219.683M437.456,219.683A177.257,177.257 0 0,1 416.017,199.767M416.017,199.767A29.2627,29.2627 0 0,0 408.193,219.683M408.193,219.683A29.2627,29.2627 0 0,0 417.657,241.231" fill="none" stroke-width="2" stroke="rgb(91,158,310)" />
	<path d="" fill="none" stroke-width="2" stroke="rgb(91,158,310)" />
	<path d="" fill="none" stroke-width="2" stroke="rgb(91,158,310)" />
	<path d="M416.017,199.767A177.257,177.257 0 0,1 411.703,194.859M411.703,194.859A125.695,125.695 0 0,1 360.677,262.231M360.677,262.231A634.526,634.526 0 0,1 393.635,270.23M393.635,270.23A651.841,651.841 0 0,1 417.657,241.231M417.657,241.231A29.2627,29.2627 0 0,1 408.193,219.683M408.193,219.683A29.2627,29.2627 0 0,1 416.017,199.767" fill="none" stroke-width="2" stroke="rgb(91,158,310)" />
	<circle cx="156.825" cy="213.641" r="2" fill="rgb(91,158,310)" />
	<circle cx="128.389" cy="220.649" r="2" fill="rgb(56,191,231)" />
	<circle cx="78.951" cy="249.608" r="2" fill="rgb(56,191,231)" />
	<circle cx="100.948" cy="230.849" r="2" fill="rgb(48,214,133)" />
	<path d="M59.3064,270.818A634.526,634.526 0 0,1 105.981,259.861M105.981,259.861A28.9096,28.9096 0 0,0 107.861,249.608M107.861,249.608A28.9096,28.9096 0 0,0 107.495,245.024M107.495,245.024A58.4667,58.4667 0 0,1 100.948,230.849M100.948,230.849A28.9096,28.9096 0 0,0 50.0414,249.608M50.0414,249.608A28.9096,28.9096 0 0,0 59.3064,270.818" fill="none" stroke-width="2" stroke="rgb(56,191,231)" />
	<path d="M105.981,259.861A634.526,634.526 0 0,1 118.264,257.589M118.264,257.589A58.4667,58.4667 0 0,1 107.495,245.024M107.495,245.024A28.9096,28.9096 0 0,1 107.861,249.608M107.861,249.608A28.9096,28.9096 0 0,1 105.981,259.861" fill="none" stroke-width="2" stroke="rgb(56,191,231)" />
	<path d="M100.948,230.849A58.4667,58.4667 0 0,1 98.3583,213.641M98.3583,213.641A58.4667,58.4667 0 0,1 166.132,155.92M166.132,155.92A125.695,125.695 0 0,1 361.818,52.6712M361.818,52.6712A209.563,209.563 0 0,1 371.831,52.9651M371.831,52.9651A177.257,177.257 0 0,1 388.439,1M388.439,1 1,1 M1,1 1,289.928 M1,289.928A634.526,634.526 0 0,1 59.3064,270.818M59.3064,270.818A28.9096,28.9096 0 0,1 50.0414,249.608M50.0414,249.608A28.9096,28.9096 0 0,1 100.948,230.849" fill="none" stroke-width="2" stroke="rgb(56,191,231)" />
	<path d="M721.023,46.7589A651.841,651.841 0 0,1 999,26.0057M999,26.0057 999,1 M999,1 705.497,1 M705.497,1A177.257,177.257 0 0,1 721.023,46.7589" fill="none" stroke-width="2" stroke="rgb(56,191,231)" />
	<path d="M118.264,257.589A634.526,634.526 0 0,1 151.331,252.701M151.331,252.701A209.563,209.563 0 0,1 168.141,179.486M168.141,179.486A125.695,125.695 0 0,1 166.127,157.073M166.127,157.073A125.695,125.695 0 0,1 166.132,155.92M166.132,155.92A58.4667,58.4667 0 0,0 98.3583,213.641M98.3583,213.641A58.4667,58.4667 0 0,0 118.264,257.589" fill="none" stroke-width="2" stroke="rgb(91,158,310)" />
	<path d="M1,1 1,289.928 M1,289.928A634.526,634.526 0 0,1 118.264,257.589M118.264,257.589A58.4667,58.4667 0 0,1 98.3583,213.641" fill="none" stroke-width="2" stroke="rgb(91,158,310)" />
	<path d="" fill="none" stroke-width="2" stroke="rgb(91,158,310)" />
	<path d="" fill="none" stroke-width="2" stroke="rgb(143,125,346)" />
	<path d="" fill="none" stroke-width="2" stroke="rgb(143,125,346)" />
	<path d="M360.677,262.231A634.526,634.526 0 0,1 393.635,270.23M393.635,270.23A651.841,651.841 0 0,1 437.456,219.683M437.456,219.683A177.257,177.257 0 0,1 411.703,194.859" fill="none" stroke-width="2" stroke="rgb(143,125,346)" />
	<path d="M1,1 1,289.928 M1,289.928A634.526,634.526 0 0,1 151.331,252.701M168.141,179.486A125.695,125.695 0 0,1 166.127,157.073M166.127,157.073A125.695,125.695 0 0,1 361.818,52.6712" fill="none" stroke-width="2" stroke="rgb(143,125,346)" />
	<path d="" fill="none" stroke-width="2" stroke="rgb(143,125,346)" />
	<path d="M705.497,1 388.439,1 " fill="none" stroke-width="2" stroke="rgb(198,99,332)" />
	<path d="M1,1 1,289.928 M1,289.928A634.526,634.526 0 0,1 205.553,248.489M205.553,248.489A125.695,125.695 0 0,1 166.127,157.073M166.127,157.073A125.695,125.695 0 0,1 370.946,59.4073M370.946,59.4073A177.257,177.257 0 0,1 388.439,1" fill="none" stroke-width="2" stroke="rgb(198,99,332)" />
	<path d="" fill="none" stroke-width="2" stroke="rgb(198,99,332)" />
	<path d="" fill="none" stroke-width="2" stroke="rgb(198,99,332)" />
	<path d="M205.553,248.489A634.526,634.526 0 0,1 360.677,262.231M360.677,262.231A125.695,125.695 0 0,0 417.517,157.073M417.517,157.073A125.695,125.695 0 0,0 166.127,157.073" fill="none" stroke-width="2" stroke="rgb(242,89,270)" />
	<path d="M360.677,262.231A634.526,634.526 0 0,1 393.635,270.23M393.635,270.23A651.841,651.841 0 0,1 999,26.0057M999,1 1,1 M205.553,248.489A125.695,125.695 0 0,1 166.127,157.073M166.127,157.073A125.695,125.695 0 0,1 417.517,157.073M417.517,157.073A125.695,125.695 0 0,1 360.677,262.231" fill="none" stroke-width="2" stroke="rgb(242,89,270)" />
	<path d="M1,289.928 1,999 M343.893,999A651.841,651.841 0 0,1 255.578,671.381M255.578,671.381A651.841,651.841 0 0,1 393.635,270.23" fill="none" stroke-width="2" stroke="rgb(263,96,178)" />
	<path d="M1,1 1,289.928 M1,289.928A634.526,634.526 0 0,1 393.635,270.23" fill="none" stroke-width="2" stroke="rgb(263,96,178)" />
	<path d="M999,999 999,26.0057 M999,26.0057A651.841,651.841 0 0,0 255.578,671.381M255.578,671.381A651.841,651.841 0 0,0 343.893,999" fill="none" stroke-width="2" stroke="rgb(255,120,79)" />
	<path d="M1,1 1,999 M343.893,999A651.841,651.841 0 0,1 255.578,671.381M255.578,671.381A651.841,651.841 0 0,1 999,26.0057" fill="none" stroke-width="2" stroke="rgb(255,120,79)" />
</svg>
